<svg width="331" height="176" viewBox="0 0 331 176" fill="none" xmlns="http://www.w3.org/2000/svg">
<path d="M50.22 14.5381C49.584 14.5381 48.984 14.4241 48.42 14.1961C47.868 13.9681 47.382 13.6501 46.962 13.2421C46.554 12.8341 46.23 12.3541 45.99 11.8021C45.762 11.2501 45.648 10.6561 45.648 10.0201C45.648 9.62409 45.696 9.22209 45.792 8.81409C45.888 8.39409 46.02 7.96209 46.188 7.51809C46.368 7.07409 46.584 6.61209 46.836 6.13209C47.088 5.65209 47.37 5.15409 47.682 4.63809L49.41 1.74009H51.93L52.002 1.92009L49.716 5.61009C49.392 6.13809 49.104 6.64209 48.852 7.12209C48.612 7.60209 48.396 8.06409 48.204 8.50809C48.024 8.95209 47.856 9.40209 47.7 9.85809L47.178 8.41809C47.334 8.01009 47.544 7.64409 47.808 7.32009C48.072 6.98409 48.372 6.70209 48.708 6.47409C49.044 6.23409 49.398 6.05409 49.77 5.93409C50.142 5.80209 50.508 5.73609 50.868 5.73609C51.576 5.73609 52.224 5.92809 52.812 6.31209C53.412 6.68409 53.886 7.18209 54.234 7.80609C54.594 8.43009 54.774 9.11409 54.774 9.85809C54.774 10.7581 54.576 11.5621 54.18 12.2701C53.796 12.9661 53.256 13.5181 52.56 13.9261C51.876 14.3341 51.096 14.5381 50.22 14.5381ZM50.256 12.2521C50.664 12.2521 51.024 12.1621 51.336 11.9821C51.66 11.7901 51.912 11.5261 52.092 11.1901C52.272 10.8541 52.362 10.4701 52.362 10.0381C52.362 9.66609 52.266 9.31809 52.074 8.99409C51.894 8.65809 51.642 8.38809 51.318 8.18409C51.006 7.98009 50.658 7.87809 50.274 7.87809C49.854 7.87809 49.476 7.98009 49.14 8.18409C48.816 8.37609 48.558 8.63409 48.366 8.95809C48.186 9.27009 48.096 9.62409 48.096 10.0201C48.096 10.4521 48.186 10.8361 48.366 11.1721C48.558 11.4961 48.816 11.7601 49.14 11.9641C49.464 12.1561 49.836 12.2521 50.256 12.2521ZM56.9748 14.5381L62.0688 3.09009L62.7168 4.26009H56.2008V1.86608H64.2828L64.5528 3.25209L59.7288 14.5381H56.9748ZM63.2156 17.0401L70.6856 1.93809H73.2056L65.7536 17.0401H63.2156ZM78.4617 14.7181C77.4897 14.7181 76.6377 14.5081 75.9057 14.0881C75.1857 13.6681 74.5197 12.9481 73.9077 11.9281L75.8877 10.6681C76.1637 11.0881 76.4397 11.4301 76.7157 11.6941C77.0037 11.9581 77.3037 12.1501 77.6157 12.2701C77.9277 12.3901 78.2517 12.4501 78.5877 12.4501C78.9477 12.4501 79.2837 12.3661 79.5957 12.1981C79.9077 12.0301 80.1537 11.7961 80.3337 11.4961C80.5257 11.1841 80.6217 10.8301 80.6217 10.4341C80.6217 10.0261 80.5437 9.68409 80.3877 9.40809C80.2317 9.13209 80.0037 8.92209 79.7037 8.77809C79.4037 8.63409 79.0497 8.56209 78.6417 8.56209C78.4617 8.56209 78.2637 8.58009 78.0477 8.61609C77.8317 8.65209 77.6097 8.71209 77.3817 8.79609C77.1537 8.86809 76.9077 8.95809 76.6437 9.06609L76.0137 7.41009L79.3437 3.77409L80.0277 4.26009L74.7357 4.18809V1.86608H82.3137L82.7997 2.85609L78.6417 7.35609L78.0117 6.61809C78.1077 6.57009 78.2637 6.52809 78.4797 6.49209C78.7077 6.44409 78.9177 6.42009 79.1097 6.42009C79.6617 6.42009 80.1777 6.52209 80.6577 6.72609C81.1377 6.93009 81.5637 7.21209 81.9357 7.57209C82.3077 7.93209 82.5957 8.35209 82.7997 8.83209C83.0157 9.31209 83.1237 9.82809 83.1237 10.3801C83.1237 11.2081 82.9137 11.9521 82.4937 12.6121C82.0857 13.2601 81.5277 13.7761 80.8197 14.1601C80.1237 14.5321 79.3377 14.7181 78.4617 14.7181ZM85.0549 14.5381L84.4609 13.0621L88.1869 8.94009C88.3909 8.72409 88.6069 8.47209 88.8349 8.18409C89.0749 7.89609 89.3029 7.60209 89.5189 7.30209C89.7469 6.99009 89.9269 6.69009 90.0589 6.40209C90.1909 6.10209 90.2569 5.83209 90.2569 5.59209C90.2569 5.31609 90.1969 5.07609 90.0769 4.87209C89.9569 4.65609 89.7829 4.48809 89.5549 4.36809C89.3269 4.24809 89.0449 4.18809 88.7089 4.18809C88.3969 4.18809 88.1029 4.27209 87.8269 4.44009C87.5509 4.59609 87.2929 4.83009 87.0529 5.14209C86.8129 5.45409 86.6029 5.83209 86.4229 6.27609L84.4069 5.14209C84.6469 4.44609 84.9889 3.84009 85.4329 3.32409C85.8769 2.80809 86.4049 2.40609 87.0169 2.11808C87.6289 1.83009 88.2829 1.68609 88.9789 1.68609C89.7109 1.69808 90.3709 1.85409 90.9589 2.15409C91.5469 2.45409 92.0089 2.87409 92.3449 3.41409C92.6809 3.95409 92.8489 4.57809 92.8489 5.28609C92.8489 5.55009 92.8189 5.82009 92.7589 6.09609C92.7109 6.37209 92.6209 6.66009 92.4889 6.96009C92.3689 7.26009 92.2069 7.57809 92.0029 7.91409C91.8109 8.23809 91.5709 8.58609 91.2829 8.95809C91.0069 9.31809 90.6889 9.69609 90.3289 10.0921L87.4669 13.2061L87.1069 12.1081H93.3709V14.5381H85.0549ZM98.6063 14.7181C97.6343 14.7181 96.7823 14.5081 96.0503 14.0881C95.3303 13.6681 94.6643 12.9481 94.0523 11.9281L96.0322 10.6681C96.3083 11.0881 96.5843 11.4301 96.8603 11.6941C97.1483 11.9581 97.4483 12.1501 97.7603 12.2701C98.0723 12.3901 98.3963 12.4501 98.7323 12.4501C99.0923 12.4501 99.4283 12.3661 99.7403 12.1981C100.052 12.0301 100.298 11.7961 100.478 11.4961C100.67 11.1841 100.766 10.8301 100.766 10.4341C100.766 10.0261 100.688 9.68409 100.532 9.40809C100.376 9.13209 100.148 8.92209 99.8483 8.77809C99.5483 8.63409 99.1943 8.56209 98.7863 8.56209C98.6063 8.56209 98.4083 8.58009 98.1923 8.61609C97.9763 8.65209 97.7543 8.71209 97.5263 8.79609C97.2983 8.86809 97.0523 8.95809 96.7883 9.06609L96.1583 7.41009L99.4883 3.77409L100.172 4.26009L94.8803 4.18809V1.86608H102.458L102.944 2.85609L98.7863 7.35609L98.1562 6.61809C98.2523 6.57009 98.4083 6.52809 98.6243 6.49209C98.8523 6.44409 99.0623 6.42009 99.2543 6.42009C99.8063 6.42009 100.322 6.52209 100.802 6.72609C101.282 6.93009 101.708 7.21209 102.08 7.57209C102.452 7.93209 102.74 8.35209 102.944 8.83209C103.16 9.31209 103.268 9.82809 103.268 10.3801C103.268 11.2081 103.058 11.9521 102.638 12.6121C102.23 13.2601 101.672 13.7761 100.964 14.1601C100.268 14.5321 99.4823 14.7181 98.6063 14.7181ZM109.267 14.5921C108.427 14.5921 107.665 14.4301 106.981 14.1061C106.297 13.7701 105.751 13.3201 105.343 12.7561C104.935 12.1921 104.731 11.5681 104.731 10.8841C104.731 10.4401 104.785 10.0381 104.893 9.67809C105.013 9.31809 105.187 8.99409 105.415 8.70609C105.655 8.41809 105.943 8.16609 106.279 7.95009C106.615 7.73409 107.005 7.54809 107.449 7.39209L107.269 8.02209C106.933 7.89009 106.633 7.73409 106.369 7.55409C106.105 7.36209 105.877 7.14609 105.685 6.90609C105.505 6.66609 105.361 6.40809 105.253 6.13209C105.157 5.84409 105.109 5.54409 105.109 5.23209C105.109 4.58409 105.295 4.00209 105.667 3.48609C106.039 2.97009 106.537 2.56209 107.161 2.26209C107.785 1.95009 108.487 1.79409 109.267 1.79409C110.035 1.79409 110.731 1.95009 111.355 2.26209C111.979 2.56209 112.477 2.97009 112.849 3.48609C113.221 4.00209 113.407 4.58409 113.407 5.23209C113.407 5.54409 113.359 5.84409 113.263 6.13209C113.167 6.40809 113.029 6.66009 112.849 6.88809C112.669 7.11609 112.441 7.32609 112.165 7.51809C111.901 7.71009 111.589 7.87809 111.229 8.02209L111.121 7.46409C111.517 7.58409 111.877 7.75209 112.201 7.96809C112.537 8.17209 112.819 8.42409 113.047 8.72409C113.287 9.01209 113.473 9.33609 113.605 9.69609C113.737 10.0561 113.803 10.4521 113.803 10.8841C113.803 11.5801 113.599 12.2101 113.191 12.7741C112.783 13.3381 112.237 13.7821 111.553 14.1061C110.869 14.4301 110.107 14.5921 109.267 14.5921ZM109.267 12.3781C109.627 12.3781 109.957 12.3061 110.257 12.1621C110.557 12.0181 110.791 11.8261 110.959 11.5861C111.127 11.3341 111.211 11.0461 111.211 10.7221C111.211 10.3861 111.127 10.0921 110.959 9.84009C110.791 9.57609 110.557 9.36609 110.257 9.21009C109.969 9.05409 109.639 8.97609 109.267 8.97609C108.895 8.97609 108.559 9.05409 108.259 9.21009C107.971 9.36609 107.743 9.57609 107.575 9.84009C107.407 10.0921 107.323 10.3861 107.323 10.7221C107.323 11.0341 107.407 11.3161 107.575 11.5681C107.743 11.8081 107.971 12.0061 108.259 12.1621C108.559 12.3061 108.895 12.3781 109.267 12.3781ZM109.267 6.78009C109.591 6.78009 109.879 6.72009 110.131 6.60009C110.383 6.46809 110.581 6.30009 110.725 6.09609C110.881 5.88009 110.959 5.62809 110.959 5.34009C110.959 5.06409 110.881 4.81809 110.725 4.60209C110.581 4.37409 110.383 4.19409 110.131 4.06209C109.879 3.93009 109.591 3.86408 109.267 3.86408C108.943 3.86408 108.649 3.93009 108.385 4.06209C108.133 4.19409 107.929 4.37409 107.773 4.60209C107.629 4.81809 107.557 5.06409 107.557 5.34009C107.557 5.62809 107.629 5.88009 107.773 6.09609C107.929 6.30009 108.133 6.46809 108.385 6.60009C108.649 6.72009 108.943 6.78009 109.267 6.78009ZM116.14 18.0121L115.348 17.0581C115.816 16.8301 116.188 16.5541 116.464 16.2301C116.752 15.9061 116.896 15.6241 116.896 15.3841C116.896 15.2761 116.866 15.1621 116.806 15.0421C116.746 14.9221 116.614 14.7721 116.41 14.5921C116.146 14.3881 115.966 14.1961 115.87 14.0161C115.786 13.8241 115.744 13.6201 115.744 13.4041C115.744 13.0561 115.87 12.7801 116.122 12.5761C116.374 12.3721 116.698 12.2701 117.094 12.2701C117.418 12.2701 117.712 12.3661 117.976 12.5581C118.252 12.7381 118.468 12.9961 118.624 13.3321C118.78 13.6561 118.858 14.0341 118.858 14.4661C118.858 14.8501 118.792 15.2221 118.66 15.5821C118.528 15.9541 118.336 16.2961 118.084 16.6081C117.844 16.9321 117.556 17.2141 117.22 17.4541C116.896 17.6941 116.536 17.8801 116.14 18.0121ZM126.812 14.5381V1.93809H132.158C132.902 1.93809 133.574 2.11809 134.174 2.47809C134.786 2.82609 135.266 3.30609 135.614 3.91809C135.974 4.53009 136.154 5.22009 136.154 5.98809C136.154 6.76809 135.974 7.47009 135.614 8.09409C135.266 8.71809 134.786 9.21609 134.174 9.58809C133.574 9.94809 132.902 10.1281 132.158 10.1281H129.512V14.5381H126.812ZM129.476 7.69809H131.852C132.14 7.69809 132.398 7.62609 132.626 7.48209C132.854 7.32609 133.034 7.12209 133.166 6.87009C133.31 6.61809 133.382 6.33009 133.382 6.00609C133.382 5.68209 133.31 5.40009 133.166 5.16009C133.034 4.90809 132.854 4.71609 132.626 4.58409C132.398 4.44009 132.14 4.36809 131.852 4.36809H129.476V7.69809ZM141.4 14.7181C140.704 14.7181 140.104 14.5681 139.6 14.2681C139.108 13.9561 138.724 13.5181 138.448 12.9541C138.184 12.3781 138.052 11.6881 138.052 10.8841V5.01609H140.608V10.4701C140.608 10.9021 140.68 11.2801 140.824 11.6041C140.968 11.9161 141.172 12.1561 141.436 12.3241C141.7 12.4921 142.024 12.5761 142.408 12.5761C142.684 12.5761 142.942 12.5341 143.182 12.4501C143.422 12.3541 143.626 12.2221 143.794 12.0541C143.962 11.8861 144.094 11.6881 144.19 11.4601C144.286 11.2321 144.334 10.9861 144.334 10.7221V5.01609H146.89V14.5381H144.46L144.37 12.5761L144.838 12.3601C144.694 12.8041 144.454 13.2061 144.118 13.5661C143.782 13.9261 143.38 14.2081 142.912 14.4121C142.444 14.6161 141.94 14.7181 141.4 14.7181ZM150.38 14.5381V2.60409H152.936V14.5381H150.38ZM148.598 7.30209V5.01609H154.88V7.30209H148.598ZM156.546 14.5381V1.21809H159.066V6.96009L158.562 7.17609C158.694 6.74409 158.928 6.35409 159.264 6.00609C159.612 5.64609 160.026 5.35809 160.506 5.14209C160.986 4.92609 161.49 4.81809 162.018 4.81809C162.738 4.81809 163.338 4.96209 163.818 5.25009C164.31 5.53809 164.676 5.97609 164.916 6.56409C165.168 7.14009 165.294 7.85409 165.294 8.70609V14.5381H162.738V8.90409C162.738 8.47209 162.678 8.11209 162.558 7.82409C162.438 7.53609 162.252 7.32609 162 7.19409C161.76 7.05009 161.46 6.99009 161.1 7.01409C160.812 7.01409 160.542 7.06209 160.29 7.15809C160.05 7.24209 159.84 7.36809 159.66 7.53609C159.492 7.70409 159.354 7.89609 159.246 8.11209C159.15 8.32809 159.102 8.56209 159.102 8.81409V14.5381H157.842C157.566 14.5381 157.32 14.5381 157.104 14.5381C156.888 14.5381 156.702 14.5381 156.546 14.5381ZM172.261 14.7181C171.229 14.7181 170.329 14.5081 169.561 14.0881C168.793 13.6681 168.193 13.0921 167.761 12.3601C167.329 11.6281 167.113 10.7881 167.113 9.84009C167.113 9.10809 167.233 8.43609 167.473 7.82409C167.713 7.21209 168.049 6.68409 168.481 6.24009C168.913 5.78409 169.423 5.43609 170.011 5.19608C170.611 4.94409 171.259 4.81809 171.955 4.81809C172.603 4.81809 173.203 4.93809 173.755 5.17809C174.307 5.40609 174.781 5.73609 175.177 6.16809C175.585 6.58809 175.897 7.08609 176.113 7.66209C176.329 8.23809 176.425 8.86809 176.401 9.55209L176.383 10.3441H168.733L168.319 8.77809H174.277L173.989 9.10209V8.70609C173.965 8.38209 173.857 8.08809 173.665 7.82409C173.485 7.56009 173.251 7.35609 172.963 7.21209C172.675 7.06809 172.351 6.99609 171.991 6.99609C171.463 6.99609 171.013 7.09809 170.641 7.30209C170.281 7.50609 170.005 7.80609 169.813 8.20209C169.621 8.59809 169.525 9.07809 169.525 9.64209C169.525 10.2181 169.645 10.7161 169.885 11.1361C170.137 11.5561 170.485 11.8861 170.929 12.1261C171.385 12.3541 171.919 12.4681 172.531 12.4681C172.951 12.4681 173.335 12.4021 173.683 12.2701C174.031 12.1381 174.403 11.9101 174.799 11.5861L176.023 13.2961C175.675 13.6081 175.291 13.8721 174.871 14.0881C174.451 14.2921 174.019 14.4481 173.575 14.5561C173.131 14.6641 172.693 14.7181 172.261 14.7181ZM179.208 14.5381V2.60409H181.764V14.5381H179.208ZM177.426 7.30209V5.01609H183.708V7.30209H177.426ZM185.374 14.5381V1.21809H187.894V6.96009L187.39 7.17609C187.522 6.74409 187.756 6.35409 188.092 6.00609C188.44 5.64609 188.854 5.35809 189.334 5.14209C189.814 4.92609 190.318 4.81809 190.846 4.81809C191.566 4.81809 192.166 4.96209 192.646 5.25009C193.138 5.53809 193.504 5.97609 193.744 6.56409C193.996 7.14009 194.122 7.85409 194.122 8.70609V14.5381H191.566V8.90409C191.566 8.47209 191.506 8.11209 191.386 7.82409C191.266 7.53609 191.08 7.32609 190.828 7.19409C190.588 7.05009 190.288 6.99009 189.928 7.01409C189.64 7.01409 189.37 7.06209 189.118 7.15809C188.878 7.24209 188.668 7.36809 188.488 7.53609C188.32 7.70409 188.182 7.89609 188.074 8.11209C187.978 8.32809 187.93 8.56209 187.93 8.81409V14.5381H186.67C186.394 14.5381 186.148 14.5381 185.932 14.5381C185.716 14.5381 185.53 14.5381 185.374 14.5381ZM202.451 14.5381V1.93809H207.923C208.763 1.93809 209.471 2.06409 210.047 2.31609C210.635 2.55609 211.079 2.91009 211.379 3.37809C211.679 3.84609 211.829 4.40409 211.829 5.05209C211.829 5.77209 211.649 6.37209 211.289 6.85209C210.929 7.33209 210.413 7.66209 209.741 7.84209L209.723 7.48209C210.275 7.61409 210.761 7.83009 211.181 8.13009C211.601 8.43009 211.925 8.80209 212.153 9.24609C212.381 9.69009 212.495 10.1941 212.495 10.7581C212.495 11.3821 212.393 11.9341 212.189 12.4141C211.985 12.8821 211.685 13.2721 211.289 13.5841C210.893 13.8961 210.425 14.1361 209.885 14.3041C209.357 14.4601 208.763 14.5381 208.103 14.5381H202.451ZM205.043 12.1981H207.995C208.379 12.1981 208.703 12.1441 208.967 12.0361C209.243 11.9161 209.453 11.7361 209.597 11.4961C209.741 11.2561 209.812 10.9741 209.812 10.6501C209.812 10.3381 209.735 10.0741 209.579 9.85809C209.423 9.64209 209.201 9.48009 208.913 9.37209C208.637 9.25209 208.301 9.19209 207.905 9.19209H205.043V12.1981ZM205.043 7.05009H207.599C207.923 7.05009 208.205 6.99009 208.445 6.87009C208.685 6.75009 208.865 6.58809 208.985 6.38409C209.117 6.18009 209.183 5.94009 209.183 5.66409C209.183 5.22009 209.039 4.87809 208.751 4.63809C208.463 4.39809 208.031 4.27808 207.455 4.27808H205.043V7.05009ZM217.865 14.7181C217.169 14.7181 216.569 14.5681 216.065 14.2681C215.573 13.9561 215.189 13.5181 214.913 12.9541C214.649 12.3781 214.517 11.6881 214.517 10.8841V5.01609H217.073V10.4701C217.073 10.9021 217.145 11.2801 217.289 11.6041C217.433 11.9161 217.637 12.1561 217.901 12.3241C218.165 12.4921 218.489 12.5761 218.873 12.5761C219.149 12.5761 219.407 12.5341 219.647 12.4501C219.887 12.3541 220.091 12.2221 220.259 12.0541C220.427 11.8861 220.559 11.6881 220.655 11.4601C220.751 11.2321 220.799 10.9861 220.799 10.7221V5.01609H223.355V14.5381H220.925L220.835 12.5761L221.303 12.3601C221.159 12.8041 220.919 13.2061 220.583 13.5661C220.247 13.9261 219.845 14.2081 219.377 14.4121C218.909 14.6161 218.405 14.7181 217.865 14.7181ZM226.142 14.5381V5.01609H228.698V14.5381H226.142ZM227.402 3.05409C226.91 3.05409 226.526 2.93409 226.25 2.69409C225.974 2.45409 225.836 2.11209 225.836 1.66809C225.836 1.26009 225.974 0.930086 226.25 0.678085C226.538 0.414085 226.922 0.282085 227.402 0.282085C227.894 0.282085 228.278 0.408085 228.554 0.660085C228.83 0.900085 228.968 1.23609 228.968 1.66809C228.968 2.08809 228.824 2.42409 228.536 2.67609C228.26 2.92809 227.882 3.05409 227.402 3.05409ZM231.446 14.5381V1.21809H234.002V14.5381H231.446ZM240.147 14.7181C239.319 14.7181 238.575 14.5081 237.915 14.0881C237.255 13.6561 236.733 13.0741 236.349 12.3421C235.977 11.5981 235.791 10.7401 235.791 9.76809C235.791 8.82009 235.977 7.97409 236.349 7.23009C236.733 6.48609 237.249 5.89809 237.897 5.46609C238.557 5.03409 239.307 4.81809 240.147 4.81809C240.591 4.81809 241.017 4.89009 241.425 5.03409C241.845 5.16609 242.217 5.35209 242.541 5.59209C242.877 5.83209 243.147 6.10209 243.351 6.40209C243.555 6.69009 243.669 6.99609 243.693 7.32009L243.045 7.42809V1.21809H245.601V14.5381H243.189L243.081 12.3421L243.585 12.3961C243.561 12.6961 243.453 12.9841 243.261 13.2601C243.069 13.5361 242.811 13.7881 242.487 14.0161C242.175 14.2321 241.815 14.4061 241.407 14.5381C241.011 14.6581 240.591 14.7181 240.147 14.7181ZM240.723 12.5941C241.203 12.5941 241.623 12.4741 241.983 12.2341C242.343 11.9941 242.625 11.6641 242.829 11.2441C243.033 10.8241 243.135 10.3321 243.135 9.76809C243.135 9.21609 243.033 8.73009 242.829 8.31009C242.625 7.87809 242.343 7.54809 241.983 7.32009C241.623 7.08009 241.203 6.96009 240.723 6.96009C240.243 6.96009 239.823 7.08009 239.463 7.32009C239.115 7.54809 238.839 7.87809 238.635 8.31009C238.443 8.73009 238.347 9.21609 238.347 9.76809C238.347 10.3321 238.443 10.8241 238.635 11.2441C238.839 11.6641 239.115 11.9941 239.463 12.2341C239.823 12.4741 240.243 12.5941 240.723 12.5941ZM248.308 14.5381V5.01609H250.864V14.5381H248.308ZM249.568 3.05409C249.076 3.05409 248.692 2.93409 248.416 2.69409C248.14 2.45409 248.002 2.11209 248.002 1.66809C248.002 1.26009 248.14 0.930086 248.416 0.678085C248.704 0.414085 249.088 0.282085 249.568 0.282085C250.06 0.282085 250.444 0.408085 250.72 0.660085C250.996 0.900085 251.134 1.23609 251.134 1.66809C251.134 2.08809 250.99 2.42409 250.702 2.67609C250.426 2.92809 250.048 3.05409 249.568 3.05409ZM253.594 14.5381V5.01609H256.042L256.114 6.96009L255.61 7.17609C255.742 6.74409 255.976 6.35409 256.312 6.00609C256.66 5.64609 257.074 5.35809 257.554 5.14209C258.034 4.92609 258.538 4.81809 259.066 4.81809C259.786 4.81809 260.386 4.96209 260.866 5.25009C261.358 5.53809 261.724 5.97609 261.964 6.56409C262.216 7.14009 262.342 7.85409 262.342 8.70609V14.5381H259.786V8.90409C259.786 8.47209 259.726 8.11209 259.606 7.82409C259.486 7.53609 259.3 7.32609 259.048 7.19409C258.808 7.05009 258.508 6.99009 258.148 7.01409C257.86 7.01409 257.59 7.06209 257.338 7.15809C257.098 7.24209 256.888 7.36809 256.708 7.53609C256.54 7.70409 256.402 7.89609 256.294 8.11209C256.198 8.32809 256.15 8.56209 256.15 8.81409V14.5381H254.89C254.614 14.5381 254.368 14.5381 254.152 14.5381C253.936 14.5381 253.75 14.5381 253.594 14.5381ZM269.13 18.6781C268.374 18.6781 267.63 18.5641 266.898 18.3361C266.166 18.1201 265.572 17.8381 265.116 17.4901L266.016 15.6541C266.256 15.8221 266.532 15.9721 266.844 16.1041C267.156 16.2361 267.48 16.3381 267.816 16.4101C268.164 16.4821 268.518 16.5181 268.878 16.5181C269.502 16.5181 270.012 16.4221 270.408 16.2301C270.816 16.0381 271.122 15.7501 271.326 15.3661C271.53 14.9941 271.632 14.5141 271.632 13.9261V12.2701L272.064 12.3601C271.992 12.7561 271.794 13.1221 271.47 13.4581C271.146 13.7821 270.738 14.0461 270.246 14.2501C269.754 14.4421 269.25 14.5381 268.734 14.5381C267.846 14.5381 267.06 14.3341 266.376 13.9261C265.692 13.5181 265.152 12.9541 264.756 12.2341C264.36 11.5141 264.162 10.6861 264.162 9.75009C264.162 8.79009 264.354 7.94409 264.738 7.21209C265.134 6.46809 265.668 5.88609 266.34 5.46609C267.024 5.03409 267.798 4.81809 268.662 4.81809C269.022 4.81809 269.364 4.86009 269.688 4.94409C270.024 5.02809 270.33 5.14809 270.606 5.30409C270.894 5.44809 271.146 5.61609 271.362 5.80809C271.59 5.98809 271.776 6.18609 271.92 6.40209C272.064 6.61809 272.154 6.83409 272.19 7.05009L271.668 7.19409L271.74 5.01609H274.188V13.8181C274.188 14.5981 274.074 15.2881 273.846 15.8881C273.618 16.4881 273.282 16.9921 272.838 17.4001C272.406 17.8201 271.872 18.1381 271.236 18.3541C270.612 18.5701 269.91 18.6781 269.13 18.6781ZM269.202 12.4861C269.706 12.4861 270.144 12.3721 270.516 12.1441C270.9 11.9161 271.194 11.5981 271.398 11.1901C271.602 10.7821 271.704 10.3021 271.704 9.75009C271.704 9.21009 271.602 8.73609 271.398 8.32809C271.194 7.90809 270.9 7.58409 270.516 7.35609C270.144 7.12809 269.706 7.01409 269.202 7.01409C268.71 7.01409 268.272 7.13409 267.888 7.37409C267.516 7.60209 267.228 7.92009 267.024 8.32809C266.82 8.73609 266.718 9.21009 266.718 9.75009C266.718 10.2901 266.82 10.7701 267.024 11.1901C267.228 11.5981 267.516 11.9161 267.888 12.1441C268.272 12.3721 268.71 12.4861 269.202 12.4861ZM276.944 18.0121L276.152 17.0581C276.62 16.8301 276.992 16.5541 277.268 16.2301C277.556 15.9061 277.7 15.6241 277.7 15.3841C277.7 15.2761 277.67 15.1621 277.61 15.0421C277.55 14.9221 277.418 14.7721 277.214 14.5921C276.95 14.3881 276.77 14.1961 276.674 14.0161C276.59 13.8241 276.548 13.6201 276.548 13.4041C276.548 13.0561 276.674 12.7801 276.926 12.5761C277.178 12.3721 277.502 12.2701 277.898 12.2701C278.222 12.2701 278.516 12.3661 278.78 12.5581C279.056 12.7381 279.272 12.9961 279.428 13.3321C279.584 13.6561 279.662 14.0341 279.662 14.4661C279.662 14.8501 279.596 15.2221 279.464 15.5821C279.332 15.9541 279.14 16.2961 278.888 16.6081C278.648 16.9321 278.36 17.2141 278.024 17.4541C277.7 17.6941 277.34 17.8801 276.944 18.0121ZM50.724 37.7181C49.944 37.7181 49.23 37.6221 48.582 37.4301C47.946 37.2381 47.376 36.9561 46.872 36.5841C46.38 36.2121 45.936 35.7621 45.54 35.2341L47.232 33.3081C47.82 34.1241 48.402 34.6821 48.978 34.9821C49.566 35.2701 50.202 35.4141 50.886 35.4141C51.258 35.4141 51.588 35.3661 51.876 35.2701C52.176 35.1621 52.41 35.0121 52.578 34.8201C52.746 34.6281 52.83 34.4001 52.83 34.1361C52.83 33.9441 52.788 33.7701 52.704 33.6141C52.62 33.4461 52.5 33.3021 52.344 33.1821C52.188 33.0501 52.002 32.9361 51.786 32.8401C51.57 32.7321 51.33 32.6421 51.066 32.5701C50.802 32.4861 50.514 32.4201 50.202 32.3721C49.53 32.2161 48.942 32.0301 48.438 31.8141C47.934 31.5861 47.514 31.3101 47.178 30.9861C46.842 30.6501 46.59 30.2721 46.422 29.8521C46.266 29.4321 46.188 28.9581 46.188 28.4301C46.188 27.8901 46.308 27.3921 46.548 26.9361C46.788 26.4681 47.118 26.0661 47.538 25.7301C47.97 25.3941 48.462 25.1361 49.014 24.9561C49.578 24.7761 50.172 24.6861 50.796 24.6861C51.564 24.6861 52.236 24.7761 52.812 24.9561C53.388 25.1241 53.886 25.3701 54.306 25.6941C54.738 26.0181 55.098 26.4141 55.386 26.8821L53.676 28.5381C53.424 28.2021 53.148 27.9201 52.848 27.6921C52.56 27.4641 52.242 27.2961 51.894 27.1881C51.558 27.0681 51.21 27.0081 50.85 27.0081C50.454 27.0081 50.112 27.0621 49.824 27.1701C49.536 27.2661 49.308 27.4101 49.14 27.6021C48.984 27.7941 48.906 28.0281 48.906 28.3041C48.906 28.5201 48.96 28.7121 49.068 28.8801C49.176 29.0481 49.332 29.1981 49.536 29.3301C49.74 29.4501 49.986 29.5581 50.274 29.6541C50.562 29.7501 50.88 29.8341 51.228 29.9061C51.888 30.0381 52.482 30.2121 53.01 30.4281C53.538 30.6441 53.988 30.9081 54.36 31.2201C54.744 31.5201 55.038 31.8801 55.242 32.3001C55.446 32.7081 55.548 33.1701 55.548 33.6861C55.548 34.5381 55.344 35.2641 54.936 35.8641C54.528 36.4641 53.964 36.9261 53.244 37.2501C52.524 37.5621 51.684 37.7181 50.724 37.7181ZM58.5515 37.5381V25.6041H61.1075V37.5381H58.5515ZM56.7695 30.3021V28.0161H63.0515V30.3021H56.7695ZM69.103 37.5381L74.035 24.9381H76.447L81.361 37.5381H78.589L76.051 30.7521C75.979 30.5601 75.889 30.3141 75.781 30.0141C75.685 29.7141 75.583 29.3961 75.475 29.0601C75.367 28.7241 75.265 28.4061 75.169 28.1061C75.073 27.7941 75.001 27.5361 74.953 27.3321L75.439 27.3141C75.367 27.5901 75.283 27.8781 75.187 28.1781C75.103 28.4661 75.013 28.7661 74.917 29.0781C74.821 29.3781 74.719 29.6721 74.611 29.9601C74.503 30.2481 74.401 30.5301 74.305 30.8061L71.767 37.5381H69.103ZM71.389 34.8921L72.271 32.7141H78.049L78.949 34.8921H71.389ZM82.7882 37.5381V24.2181H85.3442V37.5381H82.7882ZM93.4282 37.7181C93.0082 37.7181 92.6002 37.6581 92.2042 37.5381C91.8082 37.4181 91.4482 37.2561 91.1242 37.0521C90.8002 36.8361 90.5302 36.5961 90.3142 36.3321C90.0982 36.0561 89.9602 35.7741 89.9002 35.4861L90.4762 35.2701L90.3502 37.5021H87.9382V24.2181H90.4942V30.2481L90.0082 30.0501C90.0802 29.7621 90.2182 29.4861 90.4222 29.2221C90.6262 28.9461 90.8842 28.7061 91.1962 28.5021C91.5082 28.2861 91.8502 28.1181 92.2222 27.9981C92.5942 27.8781 92.9782 27.8181 93.3742 27.8181C94.2022 27.8181 94.9402 28.0341 95.5882 28.4661C96.2362 28.8861 96.7462 29.4681 97.1182 30.2121C97.5022 30.9561 97.6942 31.8081 97.6942 32.7681C97.6942 33.7281 97.5082 34.5801 97.1362 35.3241C96.7642 36.0681 96.2542 36.6561 95.6062 37.0881C94.9702 37.5081 94.2442 37.7181 93.4282 37.7181ZM92.8162 35.5401C93.2962 35.5401 93.7102 35.4261 94.0582 35.1981C94.4182 34.9581 94.7002 34.6341 94.9042 34.2261C95.1082 33.8061 95.2102 33.3201 95.2102 32.7681C95.2102 32.2281 95.1082 31.7481 94.9042 31.3281C94.7122 30.9081 94.4362 30.5841 94.0762 30.3561C93.7162 30.1281 93.2962 30.0141 92.8162 30.0141C92.3362 30.0141 91.9162 30.1281 91.5562 30.3561C91.1962 30.5841 90.9142 30.9081 90.7102 31.3281C90.5062 31.7481 90.4042 32.2281 90.4042 32.7681C90.4042 33.3201 90.5062 33.8061 90.7102 34.2261C90.9142 34.6341 91.1962 34.9581 91.5562 35.1981C91.9162 35.4261 92.3362 35.5401 92.8162 35.5401ZM104.146 37.7181C103.114 37.7181 102.214 37.5081 101.446 37.0881C100.678 36.6681 100.078 36.0921 99.6456 35.3601C99.2136 34.6281 98.9976 33.7881 98.9976 32.8401C98.9976 32.1081 99.1176 31.4361 99.3576 30.8241C99.5976 30.2121 99.9336 29.6841 100.366 29.2401C100.798 28.7841 101.308 28.4361 101.896 28.1961C102.496 27.9441 103.144 27.8181 103.84 27.8181C104.488 27.8181 105.088 27.9381 105.64 28.1781C106.192 28.4061 106.666 28.7361 107.062 29.1681C107.47 29.5881 107.782 30.0861 107.998 30.6621C108.214 31.2381 108.31 31.8681 108.286 32.5521L108.268 33.3441H100.618L100.204 31.7781H106.162L105.874 32.1021V31.7061C105.85 31.3821 105.742 31.0881 105.55 30.8241C105.37 30.5601 105.136 30.3561 104.848 30.2121C104.56 30.0681 104.236 29.9961 103.876 29.9961C103.348 29.9961 102.898 30.0981 102.526 30.3021C102.166 30.5061 101.89 30.8061 101.698 31.2021C101.506 31.5981 101.41 32.0781 101.41 32.6421C101.41 33.2181 101.53 33.7161 101.77 34.1361C102.022 34.5561 102.37 34.8861 102.814 35.1261C103.27 35.3541 103.804 35.4681 104.416 35.4681C104.836 35.4681 105.22 35.4021 105.568 35.2701C105.916 35.1381 106.288 34.9101 106.684 34.5861L107.908 36.2961C107.56 36.6081 107.176 36.8721 106.756 37.0881C106.336 37.2921 105.904 37.4481 105.46 37.5561C105.016 37.6641 104.578 37.7181 104.146 37.7181ZM110.174 37.5381V28.0161H112.64L112.73 31.0761L112.298 30.4461C112.442 29.9541 112.676 29.5101 113 29.1141C113.324 28.7061 113.702 28.3881 114.134 28.1601C114.578 27.9321 115.04 27.8181 115.52 27.8181C115.724 27.8181 115.922 27.8361 116.114 27.8721C116.306 27.9081 116.468 27.9501 116.6 27.9981L115.916 30.8061C115.772 30.7341 115.598 30.6741 115.394 30.6261C115.19 30.5661 114.98 30.5361 114.764 30.5361C114.476 30.5361 114.206 30.5901 113.954 30.6981C113.714 30.7941 113.504 30.9381 113.324 31.1301C113.144 31.3101 113 31.5261 112.892 31.7781C112.796 32.0301 112.748 32.3061 112.748 32.6061V37.5381H110.174ZM119.337 37.5381V25.6041H121.893V37.5381H119.337ZM117.555 30.3021V28.0161H123.837V30.3021H117.555ZM129.058 37.7181C128.17 37.7181 127.378 37.5741 126.682 37.2861C125.998 36.9861 125.446 36.5781 125.026 36.0621L126.61 34.6941C126.982 35.0901 127.396 35.3781 127.852 35.5581C128.308 35.7261 128.764 35.8101 129.22 35.8101C129.4 35.8101 129.562 35.7921 129.706 35.7561C129.862 35.7081 129.994 35.6481 130.102 35.5761C130.21 35.4921 130.288 35.3961 130.336 35.2881C130.396 35.1681 130.426 35.0421 130.426 34.9101C130.426 34.6461 130.318 34.4361 130.102 34.2801C129.982 34.2201 129.796 34.1481 129.544 34.0641C129.292 33.9681 128.968 33.8661 128.572 33.7581C127.96 33.6021 127.438 33.4221 127.006 33.2181C126.586 33.0021 126.25 32.7621 125.998 32.4981C125.782 32.2461 125.614 31.9761 125.494 31.6881C125.386 31.3881 125.332 31.0581 125.332 30.6981C125.332 30.2661 125.428 29.8761 125.62 29.5281C125.812 29.1681 126.076 28.8621 126.412 28.6101C126.76 28.3581 127.156 28.1661 127.6 28.0341C128.044 27.8901 128.512 27.8181 129.004 27.8181C129.496 27.8181 129.976 27.8781 130.444 27.9981C130.912 28.1181 131.344 28.2921 131.74 28.5201C132.148 28.7361 132.502 28.9941 132.802 29.2941L131.434 30.8061C131.218 30.6021 130.972 30.4161 130.696 30.2481C130.432 30.0801 130.156 29.9481 129.868 29.8521C129.58 29.7561 129.322 29.7081 129.094 29.7081C128.89 29.7081 128.704 29.7261 128.536 29.7621C128.38 29.7981 128.248 29.8521 128.14 29.9241C128.032 29.9961 127.948 30.0921 127.888 30.2121C127.84 30.3201 127.816 30.4401 127.816 30.5721C127.816 30.7041 127.846 30.8301 127.906 30.9501C127.978 31.0701 128.074 31.1721 128.194 31.2561C128.326 31.3281 128.518 31.4121 128.77 31.5081C129.034 31.6041 129.388 31.7121 129.832 31.8321C130.408 31.9881 130.894 32.1621 131.29 32.3541C131.698 32.5461 132.022 32.7681 132.262 33.0201C132.466 33.2361 132.616 33.4821 132.712 33.7581C132.808 34.0341 132.856 34.3401 132.856 34.6761C132.856 35.2641 132.688 35.7921 132.352 36.2601C132.028 36.7161 131.578 37.0761 131.002 37.3401C130.426 37.5921 129.778 37.7181 129.058 37.7181ZM146.084 37.7181C145.16 37.7181 144.308 37.5621 143.528 37.2501C142.76 36.9261 142.088 36.4761 141.512 35.9001C140.948 35.3121 140.51 34.6221 140.198 33.8301C139.886 33.0261 139.73 32.1501 139.73 31.2021C139.73 30.2781 139.892 29.4261 140.216 28.6461C140.54 27.8541 140.996 27.1701 141.584 26.5941C142.172 26.0061 142.862 25.5501 143.654 25.2261C144.446 24.9021 145.304 24.7401 146.228 24.7401C146.828 24.7401 147.416 24.8241 147.992 24.9921C148.58 25.1481 149.114 25.3821 149.594 25.6941C150.086 26.0061 150.506 26.3781 150.854 26.8101L149.162 28.6821C148.874 28.3941 148.574 28.1481 148.262 27.9441C147.962 27.7281 147.638 27.5661 147.29 27.4581C146.954 27.3381 146.594 27.2781 146.21 27.2781C145.694 27.2781 145.208 27.3741 144.752 27.5661C144.308 27.7581 143.918 28.0281 143.582 28.3761C143.246 28.7121 142.976 29.1261 142.772 29.6181C142.58 30.0981 142.484 30.6321 142.484 31.2201C142.484 31.8201 142.58 32.3661 142.772 32.8581C142.964 33.3381 143.234 33.7521 143.582 34.1001C143.93 34.4361 144.344 34.7001 144.824 34.8921C145.316 35.0721 145.856 35.1621 146.444 35.1621C146.828 35.1621 147.2 35.1081 147.56 35.0001C147.92 34.8921 148.25 34.7421 148.55 34.5501C148.862 34.3581 149.138 34.1361 149.378 33.8841L150.692 35.9901C150.404 36.3141 150.014 36.6081 149.522 36.8721C149.042 37.1361 148.502 37.3461 147.902 37.5021C147.302 37.6461 146.696 37.7181 146.084 37.7181ZM157.036 37.7181C156.064 37.7181 155.194 37.5081 154.426 37.0881C153.67 36.6561 153.07 36.0681 152.626 35.3241C152.194 34.5801 151.978 33.7281 151.978 32.7681C151.978 31.8081 152.194 30.9621 152.626 30.2301C153.07 29.4861 153.67 28.8981 154.426 28.4661C155.194 28.0341 156.064 27.8181 157.036 27.8181C157.996 27.8181 158.854 28.0341 159.61 28.4661C160.378 28.8981 160.978 29.4861 161.41 30.2301C161.842 30.9621 162.058 31.8081 162.058 32.7681C162.058 33.7281 161.842 34.5801 161.41 35.3241C160.978 36.0681 160.378 36.6561 159.61 37.0881C158.854 37.5081 157.996 37.7181 157.036 37.7181ZM157.036 35.4861C157.504 35.4861 157.924 35.3721 158.296 35.1441C158.668 34.9041 158.956 34.5801 159.16 34.1721C159.376 33.7521 159.484 33.2841 159.484 32.7681C159.484 32.2401 159.376 31.7721 159.16 31.3641C158.956 30.9441 158.668 30.6201 158.296 30.3921C157.924 30.1521 157.504 30.0321 157.036 30.0321C156.556 30.0321 156.13 30.1521 155.758 30.3921C155.386 30.6321 155.092 30.9561 154.876 31.3641C154.66 31.7721 154.558 32.2401 154.57 32.7681C154.558 33.2841 154.66 33.7521 154.876 34.1721C155.092 34.5801 155.386 34.9041 155.758 35.1441C156.13 35.3721 156.556 35.4861 157.036 35.4861ZM163.999 37.5381V24.2181H166.555V37.5381H163.999ZM169.167 37.5381V24.2181H171.723V37.5381H169.167ZM178.659 37.7181C177.627 37.7181 176.727 37.5081 175.959 37.0881C175.191 36.6681 174.591 36.0921 174.159 35.3601C173.727 34.6281 173.511 33.7881 173.511 32.8401C173.511 32.1081 173.631 31.4361 173.871 30.8241C174.111 30.2121 174.447 29.6841 174.879 29.2401C175.311 28.7841 175.821 28.4361 176.409 28.1961C177.009 27.9441 177.657 27.8181 178.353 27.8181C179.001 27.8181 179.601 27.9381 180.153 28.1781C180.705 28.4061 181.179 28.7361 181.575 29.1681C181.983 29.5881 182.295 30.0861 182.511 30.6621C182.727 31.2381 182.823 31.8681 182.799 32.5521L182.781 33.3441H175.131L174.717 31.7781H180.675L180.387 32.1021V31.7061C180.363 31.3821 180.255 31.0881 180.063 30.8241C179.883 30.5601 179.649 30.3561 179.361 30.2121C179.073 30.0681 178.749 29.9961 178.389 29.9961C177.861 29.9961 177.411 30.0981 177.039 30.3021C176.679 30.5061 176.403 30.8061 176.211 31.2021C176.019 31.5981 175.923 32.0781 175.923 32.6421C175.923 33.2181 176.043 33.7161 176.283 34.1361C176.535 34.5561 176.883 34.8861 177.327 35.1261C177.783 35.3541 178.317 35.4681 178.929 35.4681C179.349 35.4681 179.733 35.4021 180.081 35.2701C180.429 35.1381 180.801 34.9101 181.197 34.5861L182.421 36.2961C182.073 36.6081 181.689 36.8721 181.269 37.0881C180.849 37.2921 180.417 37.4481 179.973 37.5561C179.529 37.6641 179.091 37.7181 178.659 37.7181ZM188.938 41.6781C188.182 41.6781 187.438 41.5641 186.706 41.3361C185.974 41.1201 185.38 40.8381 184.924 40.4901L185.824 38.6541C186.064 38.8221 186.34 38.9721 186.652 39.1041C186.964 39.2361 187.288 39.3381 187.624 39.4101C187.972 39.4821 188.326 39.5181 188.686 39.5181C189.31 39.5181 189.82 39.4221 190.216 39.2301C190.624 39.0381 190.93 38.7501 191.134 38.3661C191.338 37.9941 191.44 37.5141 191.44 36.9261V35.2701L191.872 35.3601C191.8 35.7561 191.602 36.1221 191.278 36.4581C190.954 36.7821 190.546 37.0461 190.054 37.2501C189.562 37.4421 189.058 37.5381 188.542 37.5381C187.654 37.5381 186.868 37.3341 186.184 36.9261C185.5 36.5181 184.96 35.9541 184.564 35.2341C184.168 34.5141 183.97 33.6861 183.97 32.7501C183.97 31.7901 184.162 30.9441 184.546 30.2121C184.942 29.4681 185.476 28.8861 186.148 28.4661C186.832 28.0341 187.606 27.8181 188.47 27.8181C188.83 27.8181 189.172 27.8601 189.496 27.9441C189.832 28.0281 190.138 28.1481 190.414 28.3041C190.702 28.4481 190.954 28.6161 191.17 28.8081C191.398 28.9881 191.584 29.1861 191.728 29.4021C191.872 29.6181 191.962 29.8341 191.998 30.0501L191.476 30.1941L191.548 28.0161H193.996V36.8181C193.996 37.5981 193.882 38.2881 193.654 38.8881C193.426 39.4881 193.09 39.9921 192.646 40.4001C192.214 40.8201 191.68 41.1381 191.044 41.3541C190.42 41.5701 189.718 41.6781 188.938 41.6781ZM189.01 35.4861C189.514 35.4861 189.952 35.3721 190.324 35.1441C190.708 34.9161 191.002 34.5981 191.206 34.1901C191.41 33.7821 191.512 33.3021 191.512 32.7501C191.512 32.2101 191.41 31.7361 191.206 31.3281C191.002 30.9081 190.708 30.5841 190.324 30.3561C189.952 30.1281 189.514 30.0141 189.01 30.0141C188.518 30.0141 188.08 30.1341 187.696 30.3741C187.324 30.6021 187.036 30.9201 186.832 31.3281C186.628 31.7361 186.526 32.2101 186.526 32.7501C186.526 33.2901 186.628 33.7701 186.832 34.1901C187.036 34.5981 187.324 34.9161 187.696 35.1441C188.08 35.3721 188.518 35.4861 189.01 35.4861ZM201.054 37.7181C200.022 37.7181 199.122 37.5081 198.354 37.0881C197.586 36.6681 196.986 36.0921 196.554 35.3601C196.122 34.6281 195.906 33.7881 195.906 32.8401C195.906 32.1081 196.026 31.4361 196.266 30.8241C196.506 30.2121 196.842 29.6841 197.274 29.2401C197.706 28.7841 198.216 28.4361 198.804 28.1961C199.404 27.9441 200.052 27.8181 200.748 27.8181C201.396 27.8181 201.996 27.9381 202.548 28.1781C203.1 28.4061 203.574 28.7361 203.97 29.1681C204.378 29.5881 204.69 30.0861 204.906 30.6621C205.122 31.2381 205.218 31.8681 205.194 32.5521L205.176 33.3441H197.526L197.112 31.7781H203.07L202.782 32.1021V31.7061C202.758 31.3821 202.65 31.0881 202.458 30.8241C202.278 30.5601 202.044 30.3561 201.756 30.2121C201.468 30.0681 201.144 29.9961 200.784 29.9961C200.256 29.9961 199.806 30.0981 199.434 30.3021C199.074 30.5061 198.798 30.8061 198.606 31.2021C198.414 31.5981 198.318 32.0781 198.318 32.6421C198.318 33.2181 198.438 33.7161 198.678 34.1361C198.93 34.5561 199.278 34.8861 199.722 35.1261C200.178 35.3541 200.712 35.4681 201.324 35.4681C201.744 35.4681 202.128 35.4021 202.476 35.2701C202.824 35.1381 203.196 34.9101 203.592 34.5861L204.816 36.2961C204.468 36.6081 204.084 36.8721 203.664 37.0881C203.244 37.2921 202.812 37.4481 202.368 37.5561C201.924 37.6641 201.486 37.7181 201.054 37.7181ZM212.962 37.5381V24.9381H218.542C219.322 24.9381 220.03 25.1181 220.666 25.4781C221.302 25.8261 221.8 26.3001 222.16 26.9001C222.532 27.5001 222.718 28.1841 222.718 28.9521C222.718 29.7081 222.532 30.3981 222.16 31.0221C221.8 31.6341 221.302 32.1201 220.666 32.4801C220.03 32.8401 219.322 33.0201 218.542 33.0201H215.572V37.5381H212.962ZM220.108 37.5381L216.904 31.8501L219.676 31.4001L223.24 37.5561L220.108 37.5381ZM215.572 30.8241H218.416C218.74 30.8241 219.022 30.7521 219.262 30.6081C219.514 30.4521 219.706 30.2421 219.838 29.9781C219.97 29.7021 220.036 29.3961 220.036 29.0601C220.036 28.7001 219.958 28.3881 219.802 28.1241C219.646 27.8601 219.418 27.6561 219.118 27.5121C218.818 27.3561 218.47 27.2781 218.074 27.2781H215.572V30.8241ZM229.282 37.7181C228.31 37.7181 227.44 37.5081 226.672 37.0881C225.916 36.6561 225.316 36.0681 224.872 35.3241C224.44 34.5801 224.224 33.7281 224.224 32.7681C224.224 31.8081 224.44 30.9621 224.872 30.2301C225.316 29.4861 225.916 28.8981 226.672 28.4661C227.44 28.0341 228.31 27.8181 229.282 27.8181C230.242 27.8181 231.1 28.0341 231.856 28.4661C232.624 28.8981 233.224 29.4861 233.656 30.2301C234.088 30.9621 234.304 31.8081 234.304 32.7681C234.304 33.7281 234.088 34.5801 233.656 35.3241C233.224 36.0681 232.624 36.6561 231.856 37.0881C231.1 37.5081 230.242 37.7181 229.282 37.7181ZM229.282 35.4861C229.75 35.4861 230.17 35.3721 230.542 35.1441C230.914 34.9041 231.202 34.5801 231.406 34.1721C231.622 33.7521 231.73 33.2841 231.73 32.7681C231.73 32.2401 231.622 31.7721 231.406 31.3641C231.202 30.9441 230.914 30.6201 230.542 30.3921C230.17 30.1521 229.75 30.0321 229.282 30.0321C228.802 30.0321 228.376 30.1521 228.004 30.3921C227.632 30.6321 227.338 30.9561 227.122 31.3641C226.906 31.7721 226.804 32.2401 226.816 32.7681C226.804 33.2841 226.906 33.7521 227.122 34.1721C227.338 34.5801 227.632 34.9041 228.004 35.1441C228.376 35.3721 228.802 35.4861 229.282 35.4861ZM239.791 37.7181C238.999 37.7181 238.285 37.5021 237.649 37.0701C237.013 36.6381 236.509 36.0501 236.137 35.3061C235.765 34.5621 235.579 33.7101 235.579 32.7501C235.579 31.7901 235.765 30.9441 236.137 30.2121C236.521 29.4681 237.037 28.8861 237.685 28.4661C238.333 28.0341 239.071 27.8181 239.899 27.8181C240.367 27.8181 240.793 27.8901 241.177 28.0341C241.573 28.1661 241.915 28.3521 242.203 28.5921C242.503 28.8321 242.755 29.1081 242.959 29.4201C243.163 29.7321 243.307 30.0681 243.391 30.4281L242.851 30.3381V28.0161H245.389V37.5381H242.815V35.2521L243.391 35.1981C243.295 35.5341 243.139 35.8521 242.923 36.1521C242.707 36.4521 242.437 36.7221 242.113 36.9621C241.801 37.1901 241.447 37.3761 241.051 37.5201C240.655 37.6521 240.235 37.7181 239.791 37.7181ZM240.493 35.5041C240.973 35.5041 241.393 35.3901 241.753 35.1621C242.113 34.9341 242.389 34.6161 242.581 34.2081C242.785 33.7881 242.887 33.3021 242.887 32.7501C242.887 32.2101 242.785 31.7361 242.581 31.3281C242.389 30.9201 242.113 30.6021 241.753 30.3741C241.393 30.1341 240.973 30.0141 240.493 30.0141C240.025 30.0141 239.611 30.1341 239.251 30.3741C238.903 30.6021 238.627 30.9201 238.423 31.3281C238.219 31.7361 238.117 32.2101 238.117 32.7501C238.117 33.3021 238.219 33.7881 238.423 34.2081C238.627 34.6161 238.903 34.9341 239.251 35.1621C239.611 35.3901 240.025 35.5041 240.493 35.5041ZM251.678 37.7181C250.85 37.7181 250.106 37.5081 249.446 37.0881C248.786 36.6561 248.264 36.0741 247.88 35.3421C247.508 34.5981 247.322 33.7401 247.322 32.7681C247.322 31.8201 247.508 30.9741 247.88 30.2301C248.264 29.4861 248.78 28.8981 249.428 28.4661C250.088 28.0341 250.838 27.8181 251.678 27.8181C252.122 27.8181 252.548 27.8901 252.956 28.0341C253.376 28.1661 253.748 28.3521 254.072 28.5921C254.408 28.8321 254.678 29.1021 254.882 29.4021C255.086 29.6901 255.2 29.9961 255.224 30.3201L254.576 30.4281V24.2181H257.132V37.5381H254.72L254.612 35.3421L255.116 35.3961C255.092 35.6961 254.984 35.9841 254.792 36.2601C254.6 36.5361 254.342 36.7881 254.018 37.0161C253.706 37.2321 253.346 37.4061 252.938 37.5381C252.542 37.6581 252.122 37.7181 251.678 37.7181ZM252.254 35.5941C252.734 35.5941 253.154 35.4741 253.514 35.2341C253.874 34.9941 254.156 34.6641 254.36 34.2441C254.564 33.8241 254.666 33.3321 254.666 32.7681C254.666 32.2161 254.564 31.7301 254.36 31.3101C254.156 30.8781 253.874 30.5481 253.514 30.3201C253.154 30.0801 252.734 29.9601 252.254 29.9601C251.774 29.9601 251.354 30.0801 250.994 30.3201C250.646 30.5481 250.37 30.8781 250.166 31.3101C249.974 31.7301 249.878 32.2161 249.878 32.7681C249.878 33.3321 249.974 33.8241 250.166 34.2441C250.37 34.6641 250.646 34.9941 250.994 35.2341C251.354 35.4741 251.774 35.5941 252.254 35.5941ZM259.894 41.0121L259.102 40.0581C259.57 39.8301 259.942 39.5541 260.218 39.2301C260.506 38.9061 260.65 38.6241 260.65 38.3841C260.65 38.2761 260.62 38.1621 260.56 38.0421C260.5 37.9221 260.368 37.7721 260.164 37.5921C259.9 37.3881 259.72 37.1961 259.624 37.0161C259.54 36.8241 259.498 36.6201 259.498 36.4041C259.498 36.0561 259.624 35.7801 259.876 35.5761C260.128 35.3721 260.452 35.2701 260.848 35.2701C261.172 35.2701 261.466 35.3661 261.73 35.5581C262.006 35.7381 262.222 35.9961 262.378 36.3321C262.534 36.6561 262.612 37.0341 262.612 37.4661C262.612 37.8501 262.546 38.2221 262.414 38.5821C262.282 38.9541 262.09 39.2961 261.838 39.6081C261.598 39.9321 261.31 40.2141 260.974 40.4541C260.65 40.6941 260.29 40.8801 259.894 41.0121ZM46.638 60.5381V47.9381H55.152V50.3141H49.266V58.1621H55.278V60.5381H46.638ZM47.898 55.2641V52.9601H54.288V55.2641H47.898ZM57.7038 60.5381V51.0161H60.1698L60.2598 54.0761L59.8278 53.4461C59.9718 52.9541 60.2058 52.5101 60.5298 52.1141C60.8538 51.7061 61.2318 51.3881 61.6638 51.1601C62.1078 50.9321 62.5698 50.8181 63.0498 50.8181C63.2538 50.8181 63.4518 50.8361 63.6438 50.8721C63.8358 50.9081 63.9978 50.9501 64.1298 50.9981L63.4458 53.8061C63.3018 53.7341 63.1278 53.6741 62.9238 53.6261C62.7198 53.5661 62.5098 53.5361 62.2938 53.5361C62.0058 53.5361 61.7358 53.5901 61.4838 53.6981C61.2438 53.7941 61.0338 53.9381 60.8538 54.1301C60.6738 54.3101 60.5298 54.5261 60.4218 54.7781C60.3258 55.0301 60.2778 55.3061 60.2778 55.6061V60.5381H57.7038ZM65.5964 60.5381V51.0161H68.0444L68.1164 52.9601L67.6124 53.1761C67.7444 52.7441 67.9784 52.3541 68.3144 52.0061C68.6624 51.6461 69.0764 51.3581 69.5564 51.1421C70.0364 50.9261 70.5404 50.8181 71.0684 50.8181C71.7884 50.8181 72.3884 50.9621 72.8684 51.2501C73.3604 51.5381 73.7264 51.9761 73.9664 52.5641C74.2184 53.1401 74.3444 53.8541 74.3444 54.7061V60.5381H71.7884V54.9041C71.7884 54.4721 71.7284 54.1121 71.6084 53.8241C71.4884 53.5361 71.3024 53.3261 71.0504 53.1941C70.8104 53.0501 70.5104 52.9901 70.1504 53.0141C69.8624 53.0141 69.5924 53.0621 69.3404 53.1581C69.1004 53.2421 68.8904 53.3681 68.7104 53.5361C68.5424 53.7041 68.4044 53.8961 68.2964 54.1121C68.2004 54.3281 68.1524 54.5621 68.1524 54.8141V60.5381H66.8924C66.6164 60.5381 66.3704 60.5381 66.1544 60.5381C65.9384 60.5381 65.7524 60.5381 65.5964 60.5381ZM80.3576 60.7181C79.5656 60.7181 78.8516 60.5021 78.2156 60.0701C77.5796 59.6381 77.0756 59.0501 76.7036 58.3061C76.3316 57.5621 76.1456 56.7101 76.1456 55.7501C76.1456 54.7901 76.3316 53.9441 76.7036 53.2121C77.0876 52.4681 77.6036 51.8861 78.2516 51.4661C78.8996 51.0341 79.6376 50.8181 80.4656 50.8181C80.9336 50.8181 81.3596 50.8901 81.7436 51.0341C82.1396 51.1661 82.4816 51.3521 82.7696 51.5921C83.0696 51.8321 83.3216 52.1081 83.5256 52.4201C83.7296 52.7321 83.8736 53.0681 83.9576 53.4281L83.4176 53.3381V51.0161H85.9556V60.5381H83.3816V58.2521L83.9576 58.1981C83.8616 58.5341 83.7056 58.8521 83.4896 59.1521C83.2736 59.4521 83.0036 59.7221 82.6796 59.9621C82.3676 60.1901 82.0136 60.3761 81.6176 60.5201C81.2216 60.6521 80.8016 60.7181 80.3576 60.7181ZM81.0596 58.5041C81.5396 58.5041 81.9596 58.3901 82.3196 58.1621C82.6796 57.9341 82.9556 57.6161 83.1476 57.2081C83.3516 56.7881 83.4536 56.3021 83.4536 55.7501C83.4536 55.2101 83.3516 54.7361 83.1476 54.3281C82.9556 53.9201 82.6796 53.6021 82.3196 53.3741C81.9596 53.1341 81.5396 53.0141 81.0596 53.0141C80.5916 53.0141 80.1776 53.1341 79.8176 53.3741C79.4696 53.6021 79.1936 53.9201 78.9896 54.3281C78.7856 54.7361 78.6836 55.2101 78.6836 55.7501C78.6836 56.3021 78.7856 56.7881 78.9896 57.2081C79.1936 57.6161 79.4696 57.9341 79.8176 58.1621C80.1776 58.3901 80.5916 58.5041 81.0596 58.5041ZM90.9482 57.6761L90.1922 55.5701L94.6922 51.0161H98.0582L90.9482 57.6761ZM88.5182 60.5381V47.2181H91.0742V60.5381H88.5182ZM94.9622 60.5381L91.5422 56.2361L93.3422 54.7961L98.0402 60.5381H94.9622ZM102.64 60.7181C101.944 60.7181 101.344 60.5681 100.84 60.2681C100.348 59.9561 99.9639 59.5181 99.6879 58.9541C99.4239 58.3781 99.2919 57.6881 99.2919 56.8841V51.0161H101.848V56.4701C101.848 56.9021 101.92 57.2801 102.064 57.6041C102.208 57.9161 102.412 58.1561 102.676 58.3241C102.94 58.4921 103.264 58.5761 103.648 58.5761C103.924 58.5761 104.182 58.5341 104.422 58.4501C104.662 58.3541 104.866 58.2221 105.034 58.0541C105.202 57.8861 105.334 57.6881 105.43 57.4601C105.526 57.2321 105.574 56.9861 105.574 56.7221V51.0161H108.13V60.5381H105.7L105.61 58.5761L106.078 58.3601C105.934 58.8041 105.694 59.2061 105.358 59.5661C105.022 59.9261 104.62 60.2081 104.152 60.4121C103.684 60.6161 103.18 60.7181 102.64 60.7181ZM110.72 60.5381V47.2181H113.276V60.5381H110.72ZM119.258 60.7181C118.466 60.7181 117.752 60.5021 117.116 60.0701C116.48 59.6381 115.976 59.0501 115.604 58.3061C115.232 57.5621 115.046 56.7101 115.046 55.7501C115.046 54.7901 115.232 53.9441 115.604 53.2121C115.988 52.4681 116.504 51.8861 117.152 51.4661C117.8 51.0341 118.538 50.8181 119.366 50.8181C119.834 50.8181 120.26 50.8901 120.644 51.0341C121.04 51.1661 121.382 51.3521 121.67 51.5921C121.97 51.8321 122.222 52.1081 122.426 52.4201C122.63 52.7321 122.774 53.0681 122.858 53.4281L122.318 53.3381V51.0161H124.856V60.5381H122.282V58.2521L122.858 58.1981C122.762 58.5341 122.606 58.8521 122.39 59.1521C122.174 59.4521 121.904 59.7221 121.58 59.9621C121.268 60.1901 120.914 60.3761 120.518 60.5201C120.122 60.6521 119.702 60.7181 119.258 60.7181ZM119.96 58.5041C120.44 58.5041 120.86 58.3901 121.22 58.1621C121.58 57.9341 121.856 57.6161 122.048 57.2081C122.252 56.7881 122.354 56.3021 122.354 55.7501C122.354 55.2101 122.252 54.7361 122.048 54.3281C121.856 53.9201 121.58 53.6021 121.22 53.3741C120.86 53.1341 120.44 53.0141 119.96 53.0141C119.492 53.0141 119.078 53.1341 118.718 53.3741C118.37 53.6021 118.094 53.9201 117.89 54.3281C117.686 54.7361 117.584 55.2101 117.584 55.7501C117.584 56.3021 117.686 56.7881 117.89 57.2081C118.094 57.6161 118.37 57.9341 118.718 58.1621C119.078 58.3901 119.492 58.5041 119.96 58.5041ZM127.401 60.5381V51.0161H129.867L129.921 52.8341L129.543 52.9061C129.675 52.5941 129.849 52.3121 130.065 52.0601C130.281 51.8081 130.533 51.5921 130.821 51.4121C131.121 51.2321 131.433 51.0941 131.757 50.9981C132.081 50.8901 132.405 50.8361 132.729 50.8361C133.221 50.8361 133.665 50.9141 134.061 51.0701C134.457 51.2261 134.793 51.4721 135.069 51.8081C135.345 52.1321 135.561 52.5641 135.717 53.1041L135.321 53.0681L135.447 52.7801C135.603 52.4921 135.801 52.2341 136.041 52.0061C136.281 51.7661 136.551 51.5621 136.851 51.3941C137.151 51.2141 137.463 51.0761 137.787 50.9801C138.111 50.8841 138.429 50.8361 138.741 50.8361C139.485 50.8361 140.103 50.9861 140.595 51.2861C141.087 51.5741 141.453 52.0121 141.693 52.6001C141.945 53.1881 142.071 53.9081 142.071 54.7601V60.5381H139.515V54.9401C139.515 54.5081 139.455 54.1541 139.335 53.8781C139.215 53.6021 139.041 53.3981 138.813 53.2661C138.585 53.1221 138.291 53.0501 137.931 53.0501C137.655 53.0501 137.397 53.0981 137.157 53.1941C136.929 53.2781 136.725 53.4041 136.545 53.5721C136.377 53.7281 136.245 53.9141 136.149 54.1301C136.053 54.3461 136.005 54.5861 136.005 54.8501V60.5381H133.449V54.9221C133.449 54.5261 133.383 54.1901 133.251 53.9141C133.131 53.6261 132.957 53.4101 132.729 53.2661C132.501 53.1221 132.219 53.0501 131.883 53.0501C131.607 53.0501 131.349 53.0981 131.109 53.1941C130.881 53.2781 130.683 53.4041 130.515 53.5721C130.347 53.7281 130.209 53.9141 130.101 54.1301C130.005 54.3461 129.957 54.5801 129.957 54.8321V60.5381H127.401ZM153.966 60.5381C153.33 60.5381 152.73 60.4241 152.166 60.1961C151.614 59.9681 151.128 59.6501 150.708 59.2421C150.3 58.8341 149.976 58.3541 149.736 57.8021C149.508 57.2501 149.394 56.6561 149.394 56.0201C149.394 55.6241 149.442 55.2221 149.538 54.8141C149.634 54.3941 149.766 53.9621 149.934 53.5181C150.114 53.0741 150.33 52.6121 150.582 52.1321C150.834 51.6521 151.116 51.1541 151.428 50.6381L153.156 47.7401H155.676L155.748 47.9201L153.462 51.6101C153.138 52.1381 152.85 52.6421 152.598 53.1221C152.358 53.6021 152.142 54.0641 151.95 54.5081C151.77 54.9521 151.602 55.4021 151.446 55.8581L150.924 54.4181C151.08 54.0101 151.29 53.6441 151.554 53.3201C151.818 52.9841 152.118 52.7021 152.454 52.4741C152.79 52.2341 153.144 52.0541 153.516 51.9341C153.888 51.8021 154.254 51.7361 154.614 51.7361C155.322 51.7361 155.97 51.9281 156.558 52.3121C157.158 52.6841 157.632 53.1821 157.98 53.8061C158.34 54.4301 158.52 55.1141 158.52 55.8581C158.52 56.7581 158.322 57.5621 157.926 58.2701C157.542 58.9661 157.002 59.5181 156.306 59.9261C155.622 60.3341 154.842 60.5381 153.966 60.5381ZM154.002 58.2521C154.41 58.2521 154.77 58.1621 155.082 57.9821C155.406 57.7901 155.658 57.5261 155.838 57.1901C156.018 56.8541 156.108 56.4701 156.108 56.0381C156.108 55.6661 156.012 55.3181 155.82 54.9941C155.64 54.6581 155.388 54.3881 155.064 54.1841C154.752 53.9801 154.404 53.8781 154.02 53.8781C153.6 53.8781 153.222 53.9801 152.886 54.1841C152.562 54.3761 152.304 54.6341 152.112 54.9581C151.932 55.2701 151.842 55.6241 151.842 56.0201C151.842 56.4521 151.932 56.8361 152.112 57.1721C152.304 57.4961 152.562 57.7601 152.886 57.9641C153.21 58.1561 153.582 58.2521 154.002 58.2521ZM164.375 60.5921C163.535 60.5921 162.773 60.4301 162.089 60.1061C161.405 59.7701 160.859 59.3201 160.451 58.7561C160.043 58.1921 159.839 57.5681 159.839 56.8841C159.839 56.4401 159.893 56.0381 160.001 55.6781C160.121 55.3181 160.295 54.9941 160.523 54.7061C160.763 54.4181 161.051 54.1661 161.387 53.9501C161.723 53.7341 162.113 53.5481 162.557 53.3921L162.377 54.0221C162.041 53.8901 161.741 53.7341 161.477 53.5541C161.213 53.3621 160.985 53.1461 160.793 52.9061C160.613 52.6661 160.469 52.4081 160.361 52.1321C160.265 51.8441 160.217 51.5441 160.217 51.2321C160.217 50.5841 160.403 50.0021 160.775 49.4861C161.147 48.9701 161.645 48.5621 162.269 48.2621C162.893 47.9501 163.595 47.7941 164.375 47.7941C165.143 47.7941 165.839 47.9501 166.463 48.2621C167.087 48.5621 167.585 48.9701 167.957 49.4861C168.329 50.0021 168.515 50.5841 168.515 51.2321C168.515 51.5441 168.467 51.8441 168.371 52.1321C168.275 52.4081 168.137 52.6601 167.957 52.8881C167.777 53.1161 167.549 53.3261 167.273 53.5181C167.009 53.7101 166.697 53.8781 166.337 54.0221L166.229 53.4641C166.625 53.5841 166.985 53.7521 167.309 53.9681C167.645 54.1721 167.927 54.4241 168.155 54.7241C168.395 55.0121 168.581 55.3361 168.713 55.6961C168.845 56.0561 168.911 56.4521 168.911 56.8841C168.911 57.5801 168.707 58.2101 168.299 58.7741C167.891 59.3381 167.345 59.7821 166.661 60.1061C165.977 60.4301 165.215 60.5921 164.375 60.5921ZM164.375 58.3781C164.735 58.3781 165.065 58.3061 165.365 58.1621C165.665 58.0181 165.899 57.8261 166.067 57.5861C166.235 57.3341 166.319 57.0461 166.319 56.7221C166.319 56.3861 166.235 56.0921 166.067 55.8401C165.899 55.5761 165.665 55.3661 165.365 55.2101C165.077 55.0541 164.747 54.9761 164.375 54.9761C164.003 54.9761 163.667 55.0541 163.367 55.2101C163.079 55.3661 162.851 55.5761 162.683 55.8401C162.515 56.0921 162.431 56.3861 162.431 56.7221C162.431 57.0341 162.515 57.3161 162.683 57.5681C162.851 57.8081 163.079 58.0061 163.367 58.1621C163.667 58.3061 164.003 58.3781 164.375 58.3781ZM164.375 52.7801C164.699 52.7801 164.987 52.7201 165.239 52.6001C165.491 52.4681 165.689 52.3001 165.833 52.0961C165.989 51.8801 166.067 51.6281 166.067 51.3401C166.067 51.0641 165.989 50.8181 165.833 50.6021C165.689 50.3741 165.491 50.1941 165.239 50.0621C164.987 49.9301 164.699 49.8641 164.375 49.8641C164.051 49.8641 163.757 49.9301 163.493 50.0621C163.241 50.1941 163.037 50.3741 162.881 50.6021C162.737 50.8181 162.665 51.0641 162.665 51.3401C162.665 51.6281 162.737 51.8801 162.881 52.0961C163.037 52.3001 163.241 52.4681 163.493 52.6001C163.757 52.7201 164.051 52.7801 164.375 52.7801ZM170.959 60.5381L170.365 59.0621L174.091 54.9401C174.295 54.7241 174.511 54.4721 174.739 54.1841C174.979 53.8961 175.207 53.6021 175.423 53.3021C175.651 52.9901 175.831 52.6901 175.963 52.4021C176.095 52.1021 176.161 51.8321 176.161 51.5921C176.161 51.3161 176.101 51.0761 175.981 50.8721C175.861 50.6561 175.687 50.4881 175.459 50.3681C175.231 50.2481 174.949 50.1881 174.613 50.1881C174.301 50.1881 174.007 50.2721 173.731 50.4401C173.455 50.5961 173.197 50.8301 172.957 51.1421C172.717 51.4541 172.507 51.8321 172.327 52.2761L170.311 51.1421C170.551 50.4461 170.893 49.8401 171.337 49.3241C171.781 48.8081 172.309 48.4061 172.921 48.1181C173.533 47.8301 174.187 47.6861 174.883 47.6861C175.615 47.6981 176.275 47.8541 176.863 48.1541C177.451 48.4541 177.913 48.8741 178.249 49.4141C178.585 49.9541 178.753 50.5781 178.753 51.2861C178.753 51.5501 178.723 51.8201 178.663 52.0961C178.615 52.3721 178.525 52.6601 178.393 52.9601C178.273 53.2601 178.111 53.5781 177.907 53.9141C177.715 54.2381 177.475 54.5861 177.187 54.9581C176.911 55.3181 176.593 55.6961 176.233 56.0921L173.371 59.2061L173.011 58.1081H179.275V60.5381H170.959ZM185.429 60.7181C184.349 60.7181 183.425 60.4601 182.657 59.9441C181.901 59.4281 181.319 58.6901 180.911 57.7301C180.515 56.7581 180.317 55.5941 180.317 54.2381C180.317 52.8821 180.515 51.7241 180.911 50.7641C181.319 49.7921 181.901 49.0481 182.657 48.5321C183.425 48.0161 184.349 47.7581 185.429 47.7581C186.509 47.7581 187.433 48.0161 188.201 48.5321C188.969 49.0481 189.551 49.7921 189.947 50.7641C190.355 51.7241 190.559 52.8821 190.559 54.2381C190.559 55.5941 190.355 56.7581 189.947 57.7301C189.551 58.6901 188.969 59.4281 188.201 59.9441C187.433 60.4601 186.509 60.7181 185.429 60.7181ZM185.429 58.3961C186.233 58.3961 186.857 58.0361 187.301 57.3161C187.745 56.5961 187.967 55.5701 187.967 54.2381C187.967 52.8821 187.745 51.8381 187.301 51.1061C186.857 50.3741 186.233 50.0081 185.429 50.0081C184.613 50.0081 183.983 50.3741 183.539 51.1061C183.107 51.8381 182.891 52.8821 182.891 54.2381C182.891 55.5701 183.107 56.5961 183.539 57.3161C183.983 58.0361 184.613 58.3961 185.429 58.3961ZM195.154 59.6561V49.4321L195.82 50.6381L193.192 51.9161L192.67 49.5221L196.18 47.7581H197.818V59.6561H195.154ZM192.94 60.5381V58.1081H200.086V60.5381H192.94ZM206.404 60.5921C205.564 60.5921 204.802 60.4301 204.118 60.1061C203.434 59.7701 202.888 59.3201 202.48 58.7561C202.072 58.1921 201.868 57.5681 201.868 56.8841C201.868 56.4401 201.922 56.0381 202.03 55.6781C202.15 55.3181 202.324 54.9941 202.552 54.7061C202.792 54.4181 203.08 54.1661 203.416 53.9501C203.752 53.7341 204.142 53.5481 204.586 53.3921L204.406 54.0221C204.07 53.8901 203.77 53.7341 203.506 53.5541C203.242 53.3621 203.014 53.1461 202.822 52.9061C202.642 52.6661 202.498 52.4081 202.39 52.1321C202.294 51.8441 202.246 51.5441 202.246 51.2321C202.246 50.5841 202.432 50.0021 202.804 49.4861C203.176 48.9701 203.674 48.5621 204.298 48.2621C204.922 47.9501 205.624 47.7941 206.404 47.7941C207.172 47.7941 207.868 47.9501 208.492 48.2621C209.116 48.5621 209.614 48.9701 209.986 49.4861C210.358 50.0021 210.544 50.5841 210.544 51.2321C210.544 51.5441 210.496 51.8441 210.4 52.1321C210.304 52.4081 210.166 52.6601 209.986 52.8881C209.806 53.1161 209.578 53.3261 209.302 53.5181C209.038 53.7101 208.726 53.8781 208.366 54.0221L208.258 53.4641C208.654 53.5841 209.014 53.7521 209.338 53.9681C209.674 54.1721 209.956 54.4241 210.184 54.7241C210.424 55.0121 210.61 55.3361 210.742 55.6961C210.874 56.0561 210.94 56.4521 210.94 56.8841C210.94 57.5801 210.736 58.2101 210.328 58.7741C209.92 59.3381 209.374 59.7821 208.69 60.1061C208.006 60.4301 207.244 60.5921 206.404 60.5921ZM206.404 58.3781C206.764 58.3781 207.094 58.3061 207.394 58.1621C207.694 58.0181 207.928 57.8261 208.096 57.5861C208.264 57.3341 208.348 57.0461 208.348 56.7221C208.348 56.3861 208.264 56.0921 208.096 55.8401C207.928 55.5761 207.694 55.3661 207.394 55.2101C207.106 55.0541 206.776 54.9761 206.404 54.9761C206.032 54.9761 205.696 55.0541 205.396 55.2101C205.108 55.3661 204.88 55.5761 204.712 55.8401C204.544 56.0921 204.46 56.3861 204.46 56.7221C204.46 57.0341 204.544 57.3161 204.712 57.5681C204.88 57.8081 205.108 58.0061 205.396 58.1621C205.696 58.3061 206.032 58.3781 206.404 58.3781ZM206.404 52.7801C206.728 52.7801 207.016 52.7201 207.268 52.6001C207.52 52.4681 207.718 52.3001 207.862 52.0961C208.018 51.8801 208.096 51.6281 208.096 51.3401C208.096 51.0641 208.018 50.8181 207.862 50.6021C207.718 50.3741 207.52 50.1941 207.268 50.0621C207.016 49.9301 206.728 49.8641 206.404 49.8641C206.08 49.8641 205.786 49.9301 205.522 50.0621C205.27 50.1941 205.066 50.3741 204.91 50.6021C204.766 50.8181 204.694 51.0641 204.694 51.3401C204.694 51.6281 204.766 51.8801 204.91 52.0961C205.066 52.3001 205.27 52.4681 205.522 52.6001C205.786 52.7201 206.08 52.7801 206.404 52.7801Z" fill="#110D0E"/>
<path d="M45.846 112.993V110.887H54.864V112.993H45.846ZM49.176 116.305V107.539H51.516V116.305H49.176ZM59.5571 117.025L59.4851 116.845L63.3731 108.889L63.7511 110.095C63.5951 110.503 63.3851 110.875 63.1211 111.211C62.8571 111.535 62.5511 111.817 62.2031 112.057C61.8671 112.285 61.5131 112.465 61.1411 112.597C60.7691 112.729 60.4031 112.795 60.0431 112.795C59.3591 112.795 58.7291 112.609 58.1531 112.237C57.5771 111.865 57.1151 111.373 56.7671 110.761C56.4191 110.137 56.2451 109.465 56.2451 108.745C56.2451 107.881 56.4431 107.101 56.8391 106.405C57.2471 105.709 57.7991 105.163 58.4951 104.767C59.1911 104.359 59.9771 104.155 60.8531 104.155C61.4771 104.155 62.0651 104.269 62.6171 104.497C63.1691 104.713 63.6551 105.025 64.0751 105.433C64.4951 105.829 64.8191 106.285 65.0471 106.801C65.2871 107.317 65.4071 107.869 65.4071 108.457C65.4071 108.841 65.3711 109.231 65.2991 109.627C65.2271 110.023 65.1191 110.437 64.9751 110.869C64.8311 111.289 64.6451 111.751 64.4171 112.255C64.2011 112.747 63.9491 113.293 63.6611 113.893L62.0951 117.025H59.5571ZM60.6731 110.563C61.0811 110.563 61.4411 110.473 61.7531 110.293C62.0651 110.113 62.3111 109.873 62.4911 109.573C62.6711 109.261 62.7611 108.919 62.7611 108.547C62.7611 108.139 62.6711 107.779 62.4911 107.467C62.3231 107.143 62.0831 106.891 61.7711 106.711C61.4591 106.519 61.0991 106.423 60.6911 106.423C60.3191 106.423 59.9831 106.513 59.6831 106.693C59.3951 106.873 59.1611 107.119 58.9811 107.431C58.8131 107.743 58.7291 108.109 58.7291 108.529C58.7291 108.889 58.8131 109.225 58.9811 109.537C59.1611 109.849 59.3951 110.101 59.6831 110.293C59.9831 110.473 60.3131 110.563 60.6731 110.563ZM69.7695 116.143V105.919L70.4355 107.125L67.8075 108.403L67.2855 106.009L70.7955 104.245H72.4335V116.143H69.7695ZM67.5555 117.025V114.595H74.7015V117.025H67.5555ZM85.0629 117.025L84.9909 116.845L88.8789 108.889L89.2569 110.095C89.1009 110.503 88.8909 110.875 88.6269 111.211C88.3629 111.535 88.0569 111.817 87.7089 112.057C87.3729 112.285 87.0189 112.465 86.6469 112.597C86.2749 112.729 85.9089 112.795 85.5489 112.795C84.8649 112.795 84.2349 112.609 83.6589 112.237C83.0829 111.865 82.6209 111.373 82.2729 110.761C81.9249 110.137 81.7509 109.465 81.7509 108.745C81.7509 107.881 81.9489 107.101 82.3449 106.405C82.7529 105.709 83.3049 105.163 84.0009 104.767C84.6969 104.359 85.4829 104.155 86.3589 104.155C86.9829 104.155 87.5709 104.269 88.1229 104.497C88.6749 104.713 89.1609 105.025 89.5809 105.433C90.0009 105.829 90.3249 106.285 90.5529 106.801C90.7929 107.317 90.9129 107.869 90.9129 108.457C90.9129 108.841 90.8769 109.231 90.8049 109.627C90.7329 110.023 90.6249 110.437 90.4809 110.869C90.3369 111.289 90.1509 111.751 89.9229 112.255C89.7069 112.747 89.4549 113.293 89.1669 113.893L87.6009 117.025H85.0629ZM86.1789 110.563C86.5869 110.563 86.9469 110.473 87.2589 110.293C87.5709 110.113 87.8169 109.873 87.9969 109.573C88.1769 109.261 88.2669 108.919 88.2669 108.547C88.2669 108.139 88.1769 107.779 87.9969 107.467C87.8289 107.143 87.5889 106.891 87.2769 106.711C86.9649 106.519 86.6049 106.423 86.1969 106.423C85.8249 106.423 85.4889 106.513 85.1889 106.693C84.9009 106.873 84.6669 107.119 84.4869 107.431C84.3189 107.743 84.2349 108.109 84.2349 108.529C84.2349 108.889 84.3189 109.225 84.4869 109.537C84.6669 109.849 84.9009 110.101 85.1889 110.293C85.4889 110.473 85.8189 110.563 86.1789 110.563ZM97.3094 117.205C96.2294 117.205 95.3054 116.947 94.5374 116.431C93.7814 115.915 93.1994 115.177 92.7914 114.217C92.3954 113.245 92.1974 112.081 92.1974 110.725C92.1974 109.369 92.3954 108.211 92.7914 107.251C93.1994 106.279 93.7814 105.535 94.5374 105.019C95.3054 104.503 96.2294 104.245 97.3094 104.245C98.3894 104.245 99.3134 104.503 100.081 105.019C100.849 105.535 101.431 106.279 101.827 107.251C102.235 108.211 102.439 109.369 102.439 110.725C102.439 112.081 102.235 113.245 101.827 114.217C101.431 115.177 100.849 115.915 100.081 116.431C99.3134 116.947 98.3894 117.205 97.3094 117.205ZM97.3094 114.883C98.1134 114.883 98.7374 114.523 99.1814 113.803C99.6254 113.083 99.8474 112.057 99.8474 110.725C99.8474 109.369 99.6254 108.325 99.1814 107.593C98.7374 106.861 98.1134 106.495 97.3094 106.495C96.4934 106.495 95.8634 106.861 95.4194 107.593C94.9874 108.325 94.7714 109.369 94.7714 110.725C94.7714 112.057 94.9874 113.083 95.4194 113.803C95.8634 114.523 96.4934 114.883 97.3094 114.883ZM109.501 117.025V106.837L110.761 106.909L106.333 112.327L106.027 111.877H114.199V114.163H104.713L103.597 112.039L109.951 104.353H112.111V117.025H109.501ZM120.201 117.079C119.361 117.079 118.599 116.917 117.915 116.593C117.231 116.257 116.685 115.807 116.277 115.243C115.869 114.679 115.665 114.055 115.665 113.371C115.665 112.927 115.719 112.525 115.827 112.165C115.947 111.805 116.121 111.481 116.349 111.193C116.589 110.905 116.877 110.653 117.213 110.437C117.549 110.221 117.939 110.035 118.383 109.879L118.203 110.509C117.867 110.377 117.567 110.221 117.303 110.041C117.039 109.849 116.811 109.633 116.619 109.393C116.439 109.153 116.295 108.895 116.187 108.619C116.091 108.331 116.043 108.031 116.043 107.719C116.043 107.071 116.229 106.489 116.601 105.973C116.973 105.457 117.471 105.049 118.095 104.749C118.719 104.437 119.421 104.281 120.201 104.281C120.969 104.281 121.665 104.437 122.289 104.749C122.913 105.049 123.411 105.457 123.783 105.973C124.155 106.489 124.341 107.071 124.341 107.719C124.341 108.031 124.293 108.331 124.197 108.619C124.101 108.895 123.963 109.147 123.783 109.375C123.603 109.603 123.375 109.813 123.099 110.005C122.835 110.197 122.523 110.365 122.163 110.509L122.055 109.951C122.451 110.071 122.811 110.239 123.135 110.455C123.471 110.659 123.753 110.911 123.981 111.211C124.221 111.499 124.407 111.823 124.539 112.183C124.671 112.543 124.737 112.939 124.737 113.371C124.737 114.067 124.533 114.697 124.125 115.261C123.717 115.825 123.171 116.269 122.487 116.593C121.803 116.917 121.041 117.079 120.201 117.079ZM120.201 114.865C120.561 114.865 120.891 114.793 121.191 114.649C121.491 114.505 121.725 114.313 121.893 114.073C122.061 113.821 122.145 113.533 122.145 113.209C122.145 112.873 122.061 112.579 121.893 112.327C121.725 112.063 121.491 111.853 121.191 111.697C120.903 111.541 120.573 111.463 120.201 111.463C119.829 111.463 119.493 111.541 119.193 111.697C118.905 111.853 118.677 112.063 118.509 112.327C118.341 112.579 118.257 112.873 118.257 113.209C118.257 113.521 118.341 113.803 118.509 114.055C118.677 114.295 118.905 114.493 119.193 114.649C119.493 114.793 119.829 114.865 120.201 114.865ZM120.201 109.267C120.525 109.267 120.813 109.207 121.065 109.087C121.317 108.955 121.515 108.787 121.659 108.583C121.815 108.367 121.893 108.115 121.893 107.827C121.893 107.551 121.815 107.305 121.659 107.089C121.515 106.861 121.317 106.681 121.065 106.549C120.813 106.417 120.525 106.351 120.201 106.351C119.877 106.351 119.583 106.417 119.319 106.549C119.067 106.681 118.863 106.861 118.707 107.089C118.563 107.305 118.491 107.551 118.491 107.827C118.491 108.115 118.563 108.367 118.707 108.583C118.863 108.787 119.067 108.955 119.319 109.087C119.583 109.207 119.877 109.267 120.201 109.267ZM132.719 117.025L137.813 105.577L138.461 106.747H131.945V104.353H140.027L140.297 105.739L135.473 117.025H132.719ZM141.832 117.025L141.238 115.549L144.964 111.427C145.168 111.211 145.384 110.959 145.612 110.671C145.852 110.383 146.08 110.089 146.296 109.789C146.524 109.477 146.704 109.177 146.836 108.889C146.968 108.589 147.034 108.319 147.034 108.079C147.034 107.803 146.974 107.563 146.854 107.359C146.734 107.143 146.56 106.975 146.332 106.855C146.104 106.735 145.822 106.675 145.486 106.675C145.174 106.675 144.88 106.759 144.604 106.927C144.328 107.083 144.07 107.317 143.83 107.629C143.59 107.941 143.38 108.319 143.2 108.763L141.184 107.629C141.424 106.933 141.766 106.327 142.21 105.811C142.654 105.295 143.182 104.893 143.794 104.605C144.406 104.317 145.06 104.173 145.756 104.173C146.488 104.185 147.148 104.341 147.736 104.641C148.324 104.941 148.786 105.361 149.122 105.901C149.458 106.441 149.626 107.065 149.626 107.773C149.626 108.037 149.596 108.307 149.536 108.583C149.488 108.859 149.398 109.147 149.266 109.447C149.146 109.747 148.984 110.065 148.78 110.401C148.588 110.725 148.348 111.073 148.06 111.445C147.784 111.805 147.466 112.183 147.106 112.579L144.244 115.693L143.884 114.595H150.148V117.025H141.832ZM161.821 117.205C160.741 117.205 159.817 116.947 159.049 116.431C158.293 115.915 157.711 115.177 157.303 114.217C156.907 113.245 156.709 112.081 156.709 110.725C156.709 109.369 156.907 108.211 157.303 107.251C157.711 106.279 158.293 105.535 159.049 105.019C159.817 104.503 160.741 104.245 161.821 104.245C162.901 104.245 163.825 104.503 164.593 105.019C165.361 105.535 165.943 106.279 166.339 107.251C166.747 108.211 166.951 109.369 166.951 110.725C166.951 112.081 166.747 113.245 166.339 114.217C165.943 115.177 165.361 115.915 164.593 116.431C163.825 116.947 162.901 117.205 161.821 117.205ZM161.821 114.883C162.625 114.883 163.249 114.523 163.693 113.803C164.137 113.083 164.359 112.057 164.359 110.725C164.359 109.369 164.137 108.325 163.693 107.593C163.249 106.861 162.625 106.495 161.821 106.495C161.005 106.495 160.375 106.861 159.931 107.593C159.499 108.325 159.283 109.369 159.283 110.725C159.283 112.057 159.499 113.083 159.931 113.803C160.375 114.523 161.005 114.883 161.821 114.883ZM173.581 117.205C172.501 117.205 171.577 116.947 170.809 116.431C170.053 115.915 169.471 115.177 169.063 114.217C168.667 113.245 168.469 112.081 168.469 110.725C168.469 109.369 168.667 108.211 169.063 107.251C169.471 106.279 170.053 105.535 170.809 105.019C171.577 104.503 172.501 104.245 173.581 104.245C174.661 104.245 175.585 104.503 176.353 105.019C177.121 105.535 177.703 106.279 178.099 107.251C178.507 108.211 178.711 109.369 178.711 110.725C178.711 112.081 178.507 113.245 178.099 114.217C177.703 115.177 177.121 115.915 176.353 116.431C175.585 116.947 174.661 117.205 173.581 117.205ZM173.581 114.883C174.385 114.883 175.009 114.523 175.453 113.803C175.897 113.083 176.119 112.057 176.119 110.725C176.119 109.369 175.897 108.325 175.453 107.593C175.009 106.861 174.385 106.495 173.581 106.495C172.765 106.495 172.135 106.861 171.691 107.593C171.259 108.325 171.043 109.369 171.043 110.725C171.043 112.057 171.259 113.083 171.691 113.803C172.135 114.523 172.765 114.883 173.581 114.883ZM180.733 117.025L180.139 115.549L183.865 111.427C184.069 111.211 184.285 110.959 184.513 110.671C184.753 110.383 184.981 110.089 185.197 109.789C185.425 109.477 185.605 109.177 185.737 108.889C185.869 108.589 185.935 108.319 185.935 108.079C185.935 107.803 185.875 107.563 185.755 107.359C185.635 107.143 185.461 106.975 185.233 106.855C185.005 106.735 184.723 106.675 184.387 106.675C184.075 106.675 183.781 106.759 183.505 106.927C183.229 107.083 182.971 107.317 182.731 107.629C182.491 107.941 182.281 108.319 182.101 108.763L180.085 107.629C180.325 106.933 180.667 106.327 181.111 105.811C181.555 105.295 182.083 104.893 182.695 104.605C183.307 104.317 183.961 104.173 184.657 104.173C185.389 104.185 186.049 104.341 186.637 104.641C187.225 104.941 187.687 105.361 188.023 105.901C188.359 106.441 188.527 107.065 188.527 107.773C188.527 108.037 188.497 108.307 188.437 108.583C188.389 108.859 188.299 109.147 188.167 109.447C188.047 109.747 187.885 110.065 187.681 110.401C187.489 110.725 187.249 111.073 186.961 111.445C186.685 111.805 186.367 112.183 186.007 112.579L183.145 115.693L182.785 114.595H189.049V117.025H180.733ZM195.202 117.205C194.122 117.205 193.198 116.947 192.43 116.431C191.674 115.915 191.092 115.177 190.684 114.217C190.288 113.245 190.09 112.081 190.09 110.725C190.09 109.369 190.288 108.211 190.684 107.251C191.092 106.279 191.674 105.535 192.43 105.019C193.198 104.503 194.122 104.245 195.202 104.245C196.282 104.245 197.206 104.503 197.974 105.019C198.742 105.535 199.324 106.279 199.72 107.251C200.128 108.211 200.332 109.369 200.332 110.725C200.332 112.081 200.128 113.245 199.72 114.217C199.324 115.177 198.742 115.915 197.974 116.431C197.206 116.947 196.282 117.205 195.202 117.205ZM195.202 114.883C196.006 114.883 196.63 114.523 197.074 113.803C197.518 113.083 197.74 112.057 197.74 110.725C197.74 109.369 197.518 108.325 197.074 107.593C196.63 106.861 196.006 106.495 195.202 106.495C194.386 106.495 193.756 106.861 193.312 107.593C192.88 108.325 192.664 109.369 192.664 110.725C192.664 112.057 192.88 113.083 193.312 113.803C193.756 114.523 194.386 114.883 195.202 114.883ZM208.161 120.499L207.369 119.545C207.837 119.317 208.209 119.041 208.485 118.717C208.773 118.393 208.917 118.111 208.917 117.871C208.917 117.763 208.887 117.649 208.827 117.529C208.767 117.409 208.635 117.259 208.431 117.079C208.167 116.875 207.987 116.683 207.891 116.503C207.807 116.311 207.765 116.107 207.765 115.891C207.765 115.543 207.891 115.267 208.143 115.063C208.395 114.859 208.719 114.757 209.115 114.757C209.439 114.757 209.733 114.853 209.997 115.045C210.273 115.225 210.489 115.483 210.645 115.819C210.801 116.143 210.879 116.521 210.879 116.953C210.879 117.337 210.813 117.709 210.681 118.069C210.549 118.441 210.357 118.783 210.105 119.095C209.865 119.419 209.577 119.701 209.241 119.941C208.917 120.181 208.557 120.367 208.161 120.499ZM221.047 117.025L220.975 116.845L224.863 108.889L225.241 110.095C225.085 110.503 224.875 110.875 224.611 111.211C224.347 111.535 224.041 111.817 223.693 112.057C223.357 112.285 223.003 112.465 222.631 112.597C222.259 112.729 221.893 112.795 221.533 112.795C220.849 112.795 220.219 112.609 219.643 112.237C219.067 111.865 218.605 111.373 218.257 110.761C217.909 110.137 217.735 109.465 217.735 108.745C217.735 107.881 217.933 107.101 218.329 106.405C218.737 105.709 219.289 105.163 219.985 104.767C220.681 104.359 221.467 104.155 222.343 104.155C222.967 104.155 223.555 104.269 224.107 104.497C224.659 104.713 225.145 105.025 225.565 105.433C225.985 105.829 226.309 106.285 226.537 106.801C226.777 107.317 226.897 107.869 226.897 108.457C226.897 108.841 226.861 109.231 226.789 109.627C226.717 110.023 226.609 110.437 226.465 110.869C226.321 111.289 226.135 111.751 225.907 112.255C225.691 112.747 225.439 113.293 225.151 113.893L223.585 117.025H221.047ZM222.163 110.563C222.571 110.563 222.931 110.473 223.243 110.293C223.555 110.113 223.801 109.873 223.981 109.573C224.161 109.261 224.251 108.919 224.251 108.547C224.251 108.139 224.161 107.779 223.981 107.467C223.813 107.143 223.573 106.891 223.261 106.711C222.949 106.519 222.589 106.423 222.181 106.423C221.809 106.423 221.473 106.513 221.173 106.693C220.885 106.873 220.651 107.119 220.471 107.431C220.303 107.743 220.219 108.109 220.219 108.529C220.219 108.889 220.303 109.225 220.471 109.537C220.651 109.849 220.885 110.101 221.173 110.293C221.473 110.473 221.803 110.563 222.163 110.563ZM231.278 117.025L231.206 116.845L235.094 108.889L235.472 110.095C235.316 110.503 235.106 110.875 234.842 111.211C234.578 111.535 234.272 111.817 233.924 112.057C233.588 112.285 233.234 112.465 232.862 112.597C232.49 112.729 232.124 112.795 231.764 112.795C231.08 112.795 230.45 112.609 229.874 112.237C229.298 111.865 228.836 111.373 228.488 110.761C228.14 110.137 227.966 109.465 227.966 108.745C227.966 107.881 228.164 107.101 228.56 106.405C228.968 105.709 229.52 105.163 230.216 104.767C230.912 104.359 231.698 104.155 232.574 104.155C233.198 104.155 233.786 104.269 234.338 104.497C234.89 104.713 235.376 105.025 235.796 105.433C236.216 105.829 236.54 106.285 236.768 106.801C237.008 107.317 237.128 107.869 237.128 108.457C237.128 108.841 237.092 109.231 237.02 109.627C236.948 110.023 236.84 110.437 236.696 110.869C236.552 111.289 236.366 111.751 236.138 112.255C235.922 112.747 235.67 113.293 235.382 113.893L233.816 117.025H231.278ZM232.394 110.563C232.802 110.563 233.162 110.473 233.474 110.293C233.786 110.113 234.032 109.873 234.212 109.573C234.392 109.261 234.482 108.919 234.482 108.547C234.482 108.139 234.392 107.779 234.212 107.467C234.044 107.143 233.804 106.891 233.492 106.711C233.18 106.519 232.82 106.423 232.412 106.423C232.04 106.423 231.704 106.513 231.404 106.693C231.116 106.873 230.882 107.119 230.702 107.431C230.534 107.743 230.45 108.109 230.45 108.529C230.45 108.889 230.534 109.225 230.702 109.537C230.882 109.849 231.116 110.101 231.404 110.293C231.704 110.473 232.034 110.563 232.394 110.563ZM243.956 117.025V106.837L245.216 106.909L240.788 112.327L240.482 111.877H248.654V114.163H239.168L238.052 112.039L244.406 104.353H246.566V117.025H243.956ZM250.651 117.025L255.745 105.577L256.393 106.747H249.877V104.353H257.959L258.229 105.739L253.405 117.025H250.651ZM269.325 117.205C268.353 117.205 267.501 116.995 266.769 116.575C266.049 116.155 265.383 115.435 264.771 114.415L266.751 113.155C267.027 113.575 267.303 113.917 267.579 114.181C267.867 114.445 268.167 114.637 268.479 114.757C268.791 114.877 269.115 114.937 269.451 114.937C269.811 114.937 270.147 114.853 270.459 114.685C270.771 114.517 271.017 114.283 271.197 113.983C271.389 113.671 271.485 113.317 271.485 112.921C271.485 112.513 271.407 112.171 271.251 111.895C271.095 111.619 270.867 111.409 270.567 111.265C270.267 111.121 269.913 111.049 269.505 111.049C269.325 111.049 269.127 111.067 268.911 111.103C268.695 111.139 268.473 111.199 268.245 111.283C268.017 111.355 267.771 111.445 267.507 111.553L266.877 109.897L270.207 106.261L270.891 106.747L265.599 106.675V104.353H273.177L273.663 105.343L269.505 109.843L268.875 109.105C268.971 109.057 269.127 109.015 269.343 108.979C269.571 108.931 269.781 108.907 269.973 108.907C270.525 108.907 271.041 109.009 271.521 109.213C272.001 109.417 272.427 109.699 272.799 110.059C273.171 110.419 273.459 110.839 273.663 111.319C273.879 111.799 273.987 112.315 273.987 112.867C273.987 113.695 273.777 114.439 273.357 115.099C272.949 115.747 272.391 116.263 271.683 116.647C270.987 117.019 270.201 117.205 269.325 117.205ZM278.492 116.143V105.919L279.158 107.125L276.53 108.403L276.008 106.009L279.518 104.245H281.156V116.143H278.492ZM276.278 117.025V114.595H283.424V117.025H276.278ZM295.154 117.025C294.518 117.025 293.918 116.911 293.354 116.683C292.802 116.455 292.316 116.137 291.896 115.729C291.488 115.321 291.164 114.841 290.924 114.289C290.696 113.737 290.582 113.143 290.582 112.507C290.582 112.111 290.63 111.709 290.726 111.301C290.822 110.881 290.954 110.449 291.122 110.005C291.302 109.561 291.518 109.099 291.77 108.619C292.022 108.139 292.304 107.641 292.616 107.125L294.344 104.227H296.864L296.936 104.407L294.65 108.097C294.326 108.625 294.038 109.129 293.786 109.609C293.546 110.089 293.33 110.551 293.138 110.995C292.958 111.439 292.79 111.889 292.634 112.345L292.112 110.905C292.268 110.497 292.478 110.131 292.742 109.807C293.006 109.471 293.306 109.189 293.642 108.961C293.978 108.721 294.332 108.541 294.704 108.421C295.076 108.289 295.442 108.223 295.802 108.223C296.51 108.223 297.158 108.415 297.746 108.799C298.346 109.171 298.82 109.669 299.168 110.293C299.528 110.917 299.708 111.601 299.708 112.345C299.708 113.245 299.51 114.049 299.114 114.757C298.73 115.453 298.19 116.005 297.494 116.413C296.81 116.821 296.03 117.025 295.154 117.025ZM295.19 114.739C295.598 114.739 295.958 114.649 296.27 114.469C296.594 114.277 296.846 114.013 297.026 113.677C297.206 113.341 297.296 112.957 297.296 112.525C297.296 112.153 297.2 111.805 297.008 111.481C296.828 111.145 296.576 110.875 296.252 110.671C295.94 110.467 295.592 110.365 295.208 110.365C294.788 110.365 294.41 110.467 294.074 110.671C293.75 110.863 293.492 111.121 293.3 111.445C293.12 111.757 293.03 112.111 293.03 112.507C293.03 112.939 293.12 113.323 293.3 113.659C293.492 113.983 293.75 114.247 294.074 114.451C294.398 114.643 294.77 114.739 295.19 114.739ZM305.454 117.025C304.818 117.025 304.218 116.911 303.654 116.683C303.102 116.455 302.616 116.137 302.196 115.729C301.788 115.321 301.464 114.841 301.224 114.289C300.996 113.737 300.882 113.143 300.882 112.507C300.882 112.111 300.93 111.709 301.026 111.301C301.122 110.881 301.254 110.449 301.422 110.005C301.602 109.561 301.818 109.099 302.07 108.619C302.322 108.139 302.604 107.641 302.916 107.125L304.644 104.227H307.164L307.236 104.407L304.95 108.097C304.626 108.625 304.338 109.129 304.086 109.609C303.846 110.089 303.63 110.551 303.438 110.995C303.258 111.439 303.09 111.889 302.934 112.345L302.412 110.905C302.568 110.497 302.778 110.131 303.042 109.807C303.306 109.471 303.606 109.189 303.942 108.961C304.278 108.721 304.632 108.541 305.004 108.421C305.376 108.289 305.742 108.223 306.102 108.223C306.81 108.223 307.458 108.415 308.046 108.799C308.646 109.171 309.12 109.669 309.468 110.293C309.828 110.917 310.008 111.601 310.008 112.345C310.008 113.245 309.81 114.049 309.414 114.757C309.03 115.453 308.49 116.005 307.794 116.413C307.11 116.821 306.33 117.025 305.454 117.025ZM305.49 114.739C305.898 114.739 306.258 114.649 306.57 114.469C306.894 114.277 307.146 114.013 307.326 113.677C307.506 113.341 307.596 112.957 307.596 112.525C307.596 112.153 307.5 111.805 307.308 111.481C307.128 111.145 306.876 110.875 306.552 110.671C306.24 110.467 305.892 110.365 305.508 110.365C305.088 110.365 304.71 110.467 304.374 110.671C304.05 110.863 303.792 111.121 303.6 111.445C303.42 111.757 303.33 112.111 303.33 112.507C303.33 112.939 303.42 113.323 303.6 113.659C303.792 113.983 304.05 114.247 304.374 114.451C304.698 114.643 305.07 114.739 305.49 114.739ZM314.369 116.143V105.919L315.035 107.125L312.407 108.403L311.885 106.009L315.395 104.245H317.033V116.143H314.369ZM312.155 117.025V114.595H319.301V117.025H312.155ZM325.511 117.025C324.875 117.025 324.275 116.911 323.711 116.683C323.159 116.455 322.673 116.137 322.253 115.729C321.845 115.321 321.521 114.841 321.281 114.289C321.053 113.737 320.939 113.143 320.939 112.507C320.939 112.111 320.987 111.709 321.083 111.301C321.179 110.881 321.311 110.449 321.479 110.005C321.659 109.561 321.875 109.099 322.127 108.619C322.379 108.139 322.661 107.641 322.973 107.125L324.701 104.227H327.221L327.293 104.407L325.007 108.097C324.683 108.625 324.395 109.129 324.143 109.609C323.903 110.089 323.687 110.551 323.495 110.995C323.315 111.439 323.147 111.889 322.991 112.345L322.469 110.905C322.625 110.497 322.835 110.131 323.099 109.807C323.363 109.471 323.663 109.189 323.999 108.961C324.335 108.721 324.689 108.541 325.061 108.421C325.433 108.289 325.799 108.223 326.159 108.223C326.867 108.223 327.515 108.415 328.103 108.799C328.703 109.171 329.177 109.669 329.525 110.293C329.885 110.917 330.065 111.601 330.065 112.345C330.065 113.245 329.867 114.049 329.471 114.757C329.087 115.453 328.547 116.005 327.851 116.413C327.167 116.821 326.387 117.025 325.511 117.025ZM325.547 114.739C325.955 114.739 326.315 114.649 326.627 114.469C326.951 114.277 327.203 114.013 327.383 113.677C327.563 113.341 327.653 112.957 327.653 112.525C327.653 112.153 327.557 111.805 327.365 111.481C327.185 111.145 326.933 110.875 326.609 110.671C326.297 110.467 325.949 110.365 325.565 110.365C325.145 110.365 324.767 110.467 324.431 110.671C324.107 110.863 323.849 111.121 323.657 111.445C323.477 111.757 323.387 112.111 323.387 112.507C323.387 112.939 323.477 113.323 323.657 113.659C323.849 113.983 324.107 114.247 324.431 114.451C324.755 114.643 325.127 114.739 325.547 114.739Z" fill="#110D0E"/>
<path d="M46.494 168.818V159.296H49.05V168.818H46.494ZM47.754 157.334C47.262 157.334 46.878 157.214 46.602 156.974C46.326 156.734 46.188 156.392 46.188 155.948C46.188 155.54 46.326 155.21 46.602 154.958C46.89 154.694 47.274 154.562 47.754 154.562C48.246 154.562 48.63 154.688 48.906 154.94C49.182 155.18 49.32 155.516 49.32 155.948C49.32 156.368 49.176 156.704 48.888 156.956C48.612 157.208 48.234 157.334 47.754 157.334ZM51.78 168.818V159.296H54.228L54.3 161.24L53.796 161.456C53.928 161.024 54.162 160.634 54.498 160.286C54.846 159.926 55.26 159.638 55.74 159.422C56.22 159.206 56.724 159.098 57.252 159.098C57.972 159.098 58.572 159.242 59.052 159.53C59.544 159.818 59.91 160.256 60.15 160.844C60.402 161.42 60.528 162.134 60.528 162.986V168.818H57.972V163.184C57.972 162.752 57.912 162.392 57.792 162.104C57.672 161.816 57.486 161.606 57.234 161.474C56.994 161.33 56.694 161.27 56.334 161.294C56.046 161.294 55.776 161.342 55.524 161.438C55.284 161.522 55.074 161.648 54.894 161.816C54.726 161.984 54.588 162.176 54.48 162.392C54.384 162.608 54.336 162.842 54.336 163.094V168.818H53.076C52.8 168.818 52.554 168.818 52.338 168.818C52.122 168.818 51.936 168.818 51.78 168.818ZM63.7152 168.818V158.63C63.7152 158.042 63.8472 157.508 64.1112 157.028C64.3752 156.548 64.7352 156.17 65.1912 155.894C65.6592 155.618 66.2052 155.48 66.8292 155.48C67.2492 155.48 67.6452 155.552 68.0172 155.696C68.3892 155.828 68.7072 156.014 68.9712 156.254L68.2152 158.126C68.0592 158.03 67.8972 157.952 67.7292 157.892C67.5732 157.82 67.4292 157.784 67.2972 157.784C67.0692 157.784 66.8772 157.826 66.7212 157.91C66.5772 157.982 66.4692 158.096 66.3972 158.252C66.3252 158.396 66.2892 158.582 66.2892 158.81V168.818H65.0112C64.7352 168.818 64.4892 168.818 64.2732 168.818C64.0572 168.818 63.8712 168.818 63.7152 168.818ZM62.2932 161.69V159.53H68.3412V161.69H62.2932ZM74.1201 168.998C73.1481 168.998 72.2781 168.788 71.5101 168.368C70.7541 167.936 70.1541 167.348 69.7101 166.604C69.2781 165.86 69.0621 165.008 69.0621 164.048C69.0621 163.088 69.2781 162.242 69.7101 161.51C70.1541 160.766 70.7541 160.178 71.5101 159.746C72.2781 159.314 73.1481 159.098 74.1201 159.098C75.0801 159.098 75.9381 159.314 76.6941 159.746C77.4621 160.178 78.0621 160.766 78.4941 161.51C78.9261 162.242 79.1421 163.088 79.1421 164.048C79.1421 165.008 78.9261 165.86 78.4941 166.604C78.0621 167.348 77.4621 167.936 76.6941 168.368C75.9381 168.788 75.0801 168.998 74.1201 168.998ZM74.1201 166.766C74.5881 166.766 75.0081 166.652 75.3801 166.424C75.7521 166.184 76.0401 165.86 76.2441 165.452C76.4601 165.032 76.5681 164.564 76.5681 164.048C76.5681 163.52 76.4601 163.052 76.2441 162.644C76.0401 162.224 75.7521 161.9 75.3801 161.672C75.0081 161.432 74.5881 161.312 74.1201 161.312C73.6401 161.312 73.2141 161.432 72.8421 161.672C72.4701 161.912 72.1761 162.236 71.9601 162.644C71.7441 163.052 71.6421 163.52 71.6541 164.048C71.6421 164.564 71.7441 165.032 71.9601 165.452C72.1761 165.86 72.4701 166.184 72.8421 166.424C73.2141 166.652 73.6401 166.766 74.1201 166.766ZM87.2391 171.734C86.1951 171.734 85.2531 171.572 84.4131 171.248C83.5851 170.936 82.8771 170.486 82.2891 169.898C81.7131 169.322 81.2691 168.626 80.9571 167.81C80.6571 166.994 80.5071 166.094 80.5071 165.11C80.5071 163.706 80.7531 162.446 81.2451 161.33C81.7491 160.202 82.4391 159.248 83.3151 158.468C84.2031 157.676 85.2291 157.076 86.3931 156.668C87.5691 156.248 88.8231 156.038 90.1551 156.038C91.1151 156.038 91.9791 156.176 92.7471 156.452C93.5151 156.716 94.1751 157.1 94.7271 157.604C95.2791 158.108 95.6991 158.708 95.9871 159.404C96.2871 160.088 96.4371 160.85 96.4371 161.69C96.4371 162.518 96.3171 163.304 96.0771 164.048C95.8491 164.792 95.5251 165.452 95.1051 166.028C94.6851 166.604 94.1931 167.06 93.6291 167.396C93.0771 167.732 92.4771 167.9 91.8291 167.9C91.3851 167.9 90.9891 167.822 90.6411 167.666C90.2931 167.51 90.0231 167.3 89.8311 167.036C89.6391 166.76 89.5431 166.436 89.5431 166.064C89.5431 165.86 89.5551 165.656 89.5791 165.452C89.6151 165.248 89.6391 165.038 89.6511 164.822L90.0471 165.182C89.8551 165.758 89.6031 166.25 89.2911 166.658C88.9911 167.066 88.6371 167.378 88.2291 167.594C87.8331 167.798 87.3951 167.9 86.9151 167.9C86.3751 167.9 85.8891 167.762 85.4571 167.486C85.0371 167.198 84.7071 166.802 84.4671 166.298C84.2271 165.794 84.1071 165.212 84.1071 164.552C84.1071 163.976 84.2151 163.394 84.4311 162.806C84.6471 162.206 84.9471 161.66 85.3311 161.168C85.7271 160.664 86.1891 160.262 86.7171 159.962C87.2451 159.65 87.8211 159.494 88.4451 159.494C88.8171 159.494 89.1471 159.59 89.4351 159.782C89.7351 159.974 89.9751 160.244 90.1551 160.592C90.3471 160.928 90.4611 161.318 90.4971 161.762L89.9931 162.446L90.4971 159.692H92.8371L91.8291 165.344C91.7931 165.548 91.7991 165.716 91.8471 165.848C91.9071 165.968 91.9971 166.058 92.1171 166.118C92.2491 166.178 92.3871 166.208 92.5311 166.208C92.8671 166.208 93.1791 166.094 93.4671 165.866C93.7671 165.626 94.0251 165.302 94.2411 164.894C94.4571 164.486 94.6251 164.018 94.7451 163.49C94.8771 162.95 94.9431 162.38 94.9431 161.78C94.9431 160.88 94.7511 160.106 94.3671 159.458C93.9831 158.81 93.4251 158.318 92.6931 157.982C91.9611 157.634 91.0791 157.46 90.0471 157.46C88.8231 157.46 87.7131 157.634 86.7171 157.982C85.7331 158.318 84.8871 158.816 84.1791 159.476C83.4831 160.136 82.9491 160.934 82.5771 161.87C82.2051 162.806 82.0191 163.868 82.0191 165.056C82.0191 165.884 82.1331 166.622 82.3611 167.27C82.6011 167.906 82.9431 168.452 83.3871 168.908C83.8311 169.364 84.3831 169.706 85.0431 169.934C85.7031 170.174 86.4531 170.294 87.2931 170.294C87.8571 170.294 88.3431 170.252 88.7511 170.168C89.1591 170.096 89.5491 169.976 89.9211 169.808C90.2931 169.652 90.7071 169.454 91.1631 169.214L91.8291 170.42C91.1211 170.78 90.5151 171.05 90.0111 171.23C89.5071 171.422 89.0391 171.554 88.6071 171.626C88.1751 171.698 87.7191 171.734 87.2391 171.734ZM87.5631 165.938C87.8991 165.938 88.2291 165.83 88.5531 165.614C88.8771 165.386 89.1531 165.092 89.3811 164.732C89.6211 164.372 89.7711 163.982 89.8311 163.562C89.8671 163.382 89.8971 163.22 89.9211 163.076C89.9451 162.932 89.9571 162.794 89.9571 162.662C89.9571 162.398 89.9091 162.17 89.8131 161.978C89.7171 161.786 89.5791 161.642 89.3991 161.546C89.2191 161.438 88.9971 161.384 88.7331 161.384C88.3251 161.384 87.9531 161.534 87.6171 161.834C87.2931 162.134 87.0351 162.524 86.8431 163.004C86.6511 163.484 86.5551 163.988 86.5551 164.516C86.5551 164.96 86.6451 165.308 86.8251 165.56C87.0051 165.812 87.2511 165.938 87.5631 165.938ZM99.1703 168.818V158.63C99.1703 158.042 99.3023 157.508 99.5663 157.028C99.8303 156.548 100.19 156.17 100.646 155.894C101.114 155.618 101.66 155.48 102.284 155.48C102.704 155.48 103.1 155.552 103.472 155.696C103.844 155.828 104.162 156.014 104.426 156.254L103.67 158.126C103.514 158.03 103.352 157.952 103.184 157.892C103.028 157.82 102.884 157.784 102.752 157.784C102.524 157.784 102.332 157.826 102.176 157.91C102.032 157.982 101.924 158.096 101.852 158.252C101.78 158.396 101.744 158.582 101.744 158.81V168.818H100.466C100.19 168.818 99.9443 168.818 99.7283 168.818C99.5123 168.818 99.3263 168.818 99.1703 168.818ZM97.7483 161.69V159.53H103.796V161.69H97.7483ZM105.722 168.818V159.296H108.278V168.818H105.722ZM106.982 157.334C106.49 157.334 106.106 157.214 105.83 156.974C105.554 156.734 105.416 156.392 105.416 155.948C105.416 155.54 105.554 155.21 105.83 154.958C106.118 154.694 106.502 154.562 106.982 154.562C107.474 154.562 107.858 154.688 108.134 154.94C108.41 155.18 108.548 155.516 108.548 155.948C108.548 156.368 108.404 156.704 108.116 156.956C107.84 157.208 107.462 157.334 106.982 157.334ZM111.018 168.818V159.296H113.466L113.538 161.24L113.034 161.456C113.166 161.024 113.4 160.634 113.736 160.286C114.084 159.926 114.498 159.638 114.978 159.422C115.458 159.206 115.962 159.098 116.49 159.098C117.21 159.098 117.81 159.242 118.29 159.53C118.782 159.818 119.148 160.256 119.388 160.844C119.64 161.42 119.766 162.134 119.766 162.986V168.818H117.21V163.184C117.21 162.752 117.15 162.392 117.03 162.104C116.91 161.816 116.724 161.606 116.472 161.474C116.232 161.33 115.932 161.27 115.572 161.294C115.284 161.294 115.014 161.342 114.762 161.438C114.522 161.522 114.312 161.648 114.132 161.816C113.964 161.984 113.826 162.176 113.718 162.392C113.622 162.608 113.574 162.842 113.574 163.094V168.818H112.314C112.038 168.818 111.792 168.818 111.576 168.818C111.36 168.818 111.174 168.818 111.018 168.818ZM123.134 168.818V156.884H125.689V168.818H123.134ZM121.352 161.582V159.296H127.634V161.582H121.352ZM132.776 168.998C131.984 168.998 131.27 168.782 130.634 168.35C129.998 167.918 129.494 167.33 129.122 166.586C128.75 165.842 128.564 164.99 128.564 164.03C128.564 163.07 128.75 162.224 129.122 161.492C129.506 160.748 130.022 160.166 130.67 159.746C131.318 159.314 132.056 159.098 132.884 159.098C133.352 159.098 133.778 159.17 134.162 159.314C134.558 159.446 134.9 159.632 135.188 159.872C135.488 160.112 135.74 160.388 135.944 160.7C136.148 161.012 136.292 161.348 136.376 161.708L135.836 161.618V159.296H138.374V168.818H135.8V166.532L136.376 166.478C136.28 166.814 136.124 167.132 135.908 167.432C135.692 167.732 135.422 168.002 135.098 168.242C134.786 168.47 134.432 168.656 134.036 168.8C133.64 168.932 133.22 168.998 132.776 168.998ZM133.478 166.784C133.958 166.784 134.378 166.67 134.738 166.442C135.098 166.214 135.374 165.896 135.566 165.488C135.77 165.068 135.872 164.582 135.872 164.03C135.872 163.49 135.77 163.016 135.566 162.608C135.374 162.2 135.098 161.882 134.738 161.654C134.378 161.414 133.958 161.294 133.478 161.294C133.01 161.294 132.596 161.414 132.236 161.654C131.888 161.882 131.612 162.2 131.408 162.608C131.204 163.016 131.102 163.49 131.102 164.03C131.102 164.582 131.204 165.068 131.408 165.488C131.612 165.896 131.888 166.214 132.236 166.442C132.596 166.67 133.01 166.784 133.478 166.784ZM144.662 168.998C143.834 168.998 143.09 168.788 142.43 168.368C141.77 167.936 141.248 167.354 140.864 166.622C140.492 165.878 140.306 165.02 140.306 164.048C140.306 163.1 140.492 162.254 140.864 161.51C141.248 160.766 141.764 160.178 142.412 159.746C143.072 159.314 143.822 159.098 144.662 159.098C145.106 159.098 145.532 159.17 145.94 159.314C146.36 159.446 146.732 159.632 147.056 159.872C147.392 160.112 147.662 160.382 147.866 160.682C148.07 160.97 148.184 161.276 148.208 161.6L147.56 161.708V155.498H150.116V168.818H147.704L147.596 166.622L148.1 166.676C148.076 166.976 147.968 167.264 147.776 167.54C147.584 167.816 147.326 168.068 147.002 168.296C146.69 168.512 146.33 168.686 145.922 168.818C145.526 168.938 145.106 168.998 144.662 168.998ZM145.238 166.874C145.718 166.874 146.138 166.754 146.498 166.514C146.858 166.274 147.14 165.944 147.344 165.524C147.548 165.104 147.65 164.612 147.65 164.048C147.65 163.496 147.548 163.01 147.344 162.59C147.14 162.158 146.858 161.828 146.498 161.6C146.138 161.36 145.718 161.24 145.238 161.24C144.758 161.24 144.338 161.36 143.978 161.6C143.63 161.828 143.354 162.158 143.15 162.59C142.958 163.01 142.862 163.496 142.862 164.048C142.862 164.612 142.958 165.104 143.15 165.524C143.354 165.944 143.63 166.274 143.978 166.514C144.338 166.754 144.758 166.874 145.238 166.874ZM156.334 168.998C155.506 168.998 154.762 168.788 154.102 168.368C153.442 167.936 152.92 167.354 152.536 166.622C152.164 165.878 151.978 165.02 151.978 164.048C151.978 163.1 152.164 162.254 152.536 161.51C152.92 160.766 153.436 160.178 154.084 159.746C154.744 159.314 155.494 159.098 156.334 159.098C156.778 159.098 157.204 159.17 157.612 159.314C158.032 159.446 158.404 159.632 158.728 159.872C159.064 160.112 159.334 160.382 159.538 160.682C159.742 160.97 159.856 161.276 159.88 161.6L159.232 161.708V155.498H161.788V168.818H159.376L159.268 166.622L159.772 166.676C159.748 166.976 159.64 167.264 159.448 167.54C159.256 167.816 158.998 168.068 158.674 168.296C158.362 168.512 158.002 168.686 157.594 168.818C157.198 168.938 156.778 168.998 156.334 168.998ZM156.91 166.874C157.39 166.874 157.81 166.754 158.17 166.514C158.53 166.274 158.812 165.944 159.016 165.524C159.22 165.104 159.322 164.612 159.322 164.048C159.322 163.496 159.22 163.01 159.016 162.59C158.812 162.158 158.53 161.828 158.17 161.6C157.81 161.36 157.39 161.24 156.91 161.24C156.43 161.24 156.01 161.36 155.65 161.6C155.302 161.828 155.026 162.158 154.822 162.59C154.63 163.01 154.534 163.496 154.534 164.048C154.534 164.612 154.63 165.104 154.822 165.524C155.026 165.944 155.302 166.274 155.65 166.514C156.01 166.754 156.43 166.874 156.91 166.874ZM165.612 172.958L167.7 168.062L167.736 169.538L163.092 159.296H165.99L168.312 164.786C168.408 164.99 168.498 165.23 168.582 165.506C168.678 165.77 168.756 166.028 168.816 166.28L168.384 166.46C168.456 166.256 168.54 166.022 168.636 165.758C168.732 165.494 168.828 165.212 168.924 164.912L170.922 159.296H173.838L169.842 168.818L168.204 172.958H165.612ZM175.447 169.016C174.979 169.016 174.619 168.884 174.367 168.62C174.115 168.356 173.989 167.978 173.989 167.486C173.989 167.042 174.121 166.682 174.385 166.406C174.661 166.118 175.015 165.974 175.447 165.974C175.903 165.974 176.257 166.106 176.509 166.37C176.761 166.634 176.887 167.006 176.887 167.486C176.887 167.942 176.755 168.314 176.491 168.602C176.227 168.878 175.879 169.016 175.447 169.016ZM183.08 168.998C182.168 168.998 181.352 168.782 180.632 168.35C179.912 167.918 179.342 167.33 178.922 166.586C178.514 165.842 178.31 164.996 178.31 164.048C178.31 163.112 178.514 162.272 178.922 161.528C179.342 160.772 179.912 160.178 180.632 159.746C181.352 159.314 182.168 159.098 183.08 159.098C183.932 159.098 184.712 159.254 185.42 159.566C186.128 159.878 186.68 160.31 187.076 160.862L185.672 162.554C185.504 162.326 185.294 162.122 185.042 161.942C184.79 161.75 184.514 161.6 184.214 161.492C183.926 161.384 183.626 161.33 183.314 161.33C182.822 161.33 182.384 161.45 182 161.69C181.628 161.918 181.334 162.236 181.118 162.644C180.902 163.052 180.794 163.52 180.794 164.048C180.794 164.564 180.902 165.026 181.118 165.434C181.346 165.83 181.652 166.154 182.036 166.406C182.42 166.646 182.852 166.766 183.332 166.766C183.644 166.766 183.938 166.724 184.214 166.64C184.49 166.544 184.748 166.406 184.988 166.226C185.24 166.046 185.468 165.83 185.672 165.578L187.058 167.27C186.65 167.786 186.086 168.206 185.366 168.53C184.646 168.842 183.884 168.998 183.08 168.998ZM193.124 168.998C192.152 168.998 191.282 168.788 190.514 168.368C189.758 167.936 189.158 167.348 188.714 166.604C188.282 165.86 188.066 165.008 188.066 164.048C188.066 163.088 188.282 162.242 188.714 161.51C189.158 160.766 189.758 160.178 190.514 159.746C191.282 159.314 192.152 159.098 193.124 159.098C194.084 159.098 194.942 159.314 195.698 159.746C196.466 160.178 197.066 160.766 197.498 161.51C197.93 162.242 198.146 163.088 198.146 164.048C198.146 165.008 197.93 165.86 197.498 166.604C197.066 167.348 196.466 167.936 195.698 168.368C194.942 168.788 194.084 168.998 193.124 168.998ZM193.124 166.766C193.592 166.766 194.012 166.652 194.384 166.424C194.756 166.184 195.044 165.86 195.248 165.452C195.464 165.032 195.572 164.564 195.572 164.048C195.572 163.52 195.464 163.052 195.248 162.644C195.044 162.224 194.756 161.9 194.384 161.672C194.012 161.432 193.592 161.312 193.124 161.312C192.644 161.312 192.218 161.432 191.846 161.672C191.474 161.912 191.18 162.236 190.964 162.644C190.748 163.052 190.646 163.52 190.658 164.048C190.646 164.564 190.748 165.032 190.964 165.452C191.18 165.86 191.474 166.184 191.846 166.424C192.218 166.652 192.644 166.766 193.124 166.766ZM200.051 168.818V159.296H202.517L202.571 161.114L202.193 161.186C202.325 160.874 202.499 160.592 202.715 160.34C202.931 160.088 203.183 159.872 203.471 159.692C203.771 159.512 204.083 159.374 204.407 159.278C204.731 159.17 205.055 159.116 205.379 159.116C205.871 159.116 206.315 159.194 206.711 159.35C207.107 159.506 207.443 159.752 207.719 160.088C207.995 160.412 208.211 160.844 208.367 161.384L207.971 161.348L208.097 161.06C208.253 160.772 208.451 160.514 208.691 160.286C208.931 160.046 209.201 159.842 209.501 159.674C209.801 159.494 210.113 159.356 210.437 159.26C210.761 159.164 211.079 159.116 211.391 159.116C212.135 159.116 212.753 159.266 213.245 159.566C213.737 159.854 214.103 160.292 214.343 160.88C214.595 161.468 214.721 162.188 214.721 163.04V168.818H212.165V163.22C212.165 162.788 212.105 162.434 211.985 162.158C211.865 161.882 211.691 161.678 211.463 161.546C211.235 161.402 210.941 161.33 210.581 161.33C210.305 161.33 210.047 161.378 209.807 161.474C209.579 161.558 209.375 161.684 209.195 161.852C209.027 162.008 208.895 162.194 208.799 162.41C208.703 162.626 208.655 162.866 208.655 163.13V168.818H206.099V163.202C206.099 162.806 206.033 162.47 205.901 162.194C205.781 161.906 205.607 161.69 205.379 161.546C205.151 161.402 204.869 161.33 204.533 161.33C204.257 161.33 203.999 161.378 203.759 161.474C203.531 161.558 203.333 161.684 203.165 161.852C202.997 162.008 202.859 162.194 202.751 162.41C202.655 162.626 202.607 162.86 202.607 163.112V168.818H200.051Z" fill="#110D0E"/>
<path d="M13.8889 29.9727C19.3333 24.2858 24.7778 19.1934 24.7778 12.9119C24.7778 6.63033 19.9027 1.53809 13.8889 1.53809C7.87513 1.53809 3 6.63033 3 12.9119C3 19.1934 8.44444 24.2858 13.8889 29.9727Z" stroke="#110D0E" stroke-width="3" stroke-linecap="round" stroke-linejoin="round"/>
<path d="M13.8893 17.3351C16.4667 17.3351 18.556 15.2134 18.556 12.596C18.556 9.97871 16.4667 7.85693 13.8893 7.85693C11.3119 7.85693 9.22266 9.97871 9.22266 12.596C9.22266 15.2134 11.3119 17.3351 13.8893 17.3351Z" stroke="#110D0E" stroke-width="3" stroke-linecap="round" stroke-linejoin="round"/>
<path d="M28.7143 158.218L23.6274 161.088C20.7914 162.688 19.3734 163.488 17.8717 163.802C16.5426 164.08 15.1717 164.08 13.8426 163.802C12.3409 163.488 10.9229 162.688 8.08686 161.088L3 158.218M7.57143 174.177H24.1429C25.743 174.177 26.5431 174.177 27.1543 173.86C27.6919 173.582 28.129 173.138 28.4029 172.592C28.7143 171.972 28.7143 171.159 28.7143 169.534V158.509C28.7143 156.884 28.7143 156.071 28.4029 155.45C28.129 154.904 27.6919 154.461 27.1543 154.182C26.5431 153.866 25.743 153.866 24.1429 153.866H7.57143C5.97129 153.866 5.1712 153.866 4.56003 154.182C4.02241 154.461 3.58533 154.904 3.31141 155.45C3 156.071 3 156.884 3 158.509V169.534C3 171.159 3 171.972 3.31141 172.592C3.58533 173.138 4.02241 173.582 4.56003 173.86C5.1712 174.177 5.97127 174.177 7.57143 174.177Z" stroke="#110D0E" stroke-width="3" stroke-linecap="round" stroke-linejoin="round"/>
<path d="M15.333 98.0127C15.333 98.0127 18.2663 98.2835 21.9997 102.075C25.733 105.866 25.9997 108.845 25.9997 108.845" stroke="#110D0E" stroke-width="2.75" stroke-linecap="round"/>
<path d="M15.6094 102.8C15.6094 102.8 16.9294 103.183 18.9092 105.193C20.8891 107.204 21.2663 108.544 21.2663 108.544" stroke="#110D0E" stroke-width="2.75" stroke-linecap="round"/>
<path d="M10.0502 102.503L10.9155 104.077C11.6964 105.499 11.383 107.363 10.153 108.612C10.153 108.612 8.66119 110.127 11.366 112.874C14.07 115.62 15.563 114.106 15.563 114.106C16.793 112.857 18.6286 112.538 20.0279 113.331L21.5784 114.21C23.6915 115.408 23.941 118.417 22.0838 120.303C20.9678 121.436 19.6006 122.318 18.0892 122.376C15.5451 122.474 11.2244 121.82 6.89028 117.419C2.55618 113.018 1.91228 108.63 2.00874 106.046C2.06603 104.511 2.9344 103.123 4.05042 101.99C5.90769 100.104 8.87091 100.357 10.0502 102.503Z" stroke="#110D0E" stroke-width="2.75" stroke-linecap="round"/>
</svg>
