<svg width="26" height="26" viewBox="0 0 26 26" fill="none" xmlns="http://www.w3.org/2000/svg">
<path d="M12.9996 19.8879C16.6995 19.8879 19.695 16.8426 19.695 13.0909C19.695 9.33917 16.6995 6.29385 12.9996 6.29385C9.29959 6.29385 6.3041 9.33917 6.3041 13.0909C6.3041 16.8426 9.29959 19.8879 12.9996 19.8879ZM17.2132 13.0909C17.2132 15.4576 15.3245 17.3723 12.9996 17.3723C10.6746 17.3723 8.78592 15.4576 8.78592 13.0909C8.78592 10.7242 10.6746 8.80953 12.9996 8.80953C15.3245 8.80953 17.2132 10.7242 17.2132 13.0909Z" fill="#110D0E" stroke="#110D0E" stroke-width="0.3"/>
<path d="M19.545 5.18594C18.8575 5.18594 18.3041 5.75129 18.3041 6.44378C18.3041 7.13627 18.8575 7.70162 19.545 7.70162C20.2325 7.70162 20.7859 7.13627 20.7859 6.44378C20.7859 5.75129 20.2325 5.18594 19.545 5.18594Z" fill="#110D0E" stroke="#110D0E" stroke-width="0.3"/>
<path d="M5.63335 22.4454L5.56441 22.5786L5.63334 22.4454C4.84067 22.0352 4.19579 21.3805 3.79149 20.5748C3.62992 20.2528 3.49069 19.7777 3.41326 18.8153C3.33363 17.8254 3.33182 16.5425 3.33182 14.642V11.5401C3.33182 9.63965 3.33363 8.35657 3.41326 7.36675C3.49069 6.40438 3.62992 5.92933 3.79149 5.60731C4.19579 4.80152 4.84067 4.14683 5.63334 3.73668C5.94966 3.573 6.4166 3.43174 7.36376 3.35315C8.33811 3.27232 9.60125 3.27047 11.4727 3.27047H14.5273C16.3988 3.27047 17.6618 3.27232 18.6362 3.35315C19.5834 3.43174 20.0504 3.573 20.3667 3.73667C21.1593 4.14683 21.8042 4.80152 22.2085 5.60731C22.3701 5.92934 22.5094 6.40439 22.5867 7.36675C22.6663 8.35657 22.6682 9.63965 22.6682 11.5401V14.642C22.6682 16.5425 22.6663 17.8254 22.5867 18.8153C22.5094 19.7777 22.3701 20.2528 22.2085 20.5748C21.8042 21.3805 21.1593 22.0352 20.3667 22.4454C20.0504 22.6091 19.5834 22.7504 18.6362 22.8289C17.6618 22.9097 16.3988 22.9116 14.5273 22.9116H11.4727C9.60125 22.9116 8.33811 22.9097 7.36376 22.8289C6.41661 22.7504 5.94967 22.6091 5.63335 22.4454ZM1.57934 4.46687C1.21036 5.20228 1.02957 6.04476 0.939659 7.16227C0.85 8.27668 0.85 9.67762 0.85 11.533V11.5401V14.642V14.649C0.85 16.5044 0.85 17.9054 0.939659 19.0198C1.02957 20.1373 1.21036 20.9798 1.57934 21.7152C2.22094 22.9939 3.24493 24.0341 4.50495 24.686C5.2299 25.0611 6.06036 25.2449 7.16129 25.3362C8.25895 25.4273 9.63871 25.4273 11.4655 25.4273H11.4727H14.5273H14.5345C16.3613 25.4273 17.7411 25.4273 18.8387 25.3362C19.9396 25.2449 20.7701 25.0611 21.495 24.686C22.755 24.0341 23.7791 22.9939 24.4206 21.7152C24.7896 20.9798 24.9704 20.1373 25.0603 19.0198C25.15 17.9054 25.15 16.5045 25.15 14.6491V14.642V11.5401V11.533C25.15 9.67758 25.15 8.27667 25.0603 7.16227C24.9704 6.04476 24.7896 5.20227 24.4206 4.46687C23.7791 3.18811 22.755 2.14802 21.495 1.49605C20.7701 1.12093 19.9396 0.937205 18.8387 0.845859C17.7411 0.754785 16.3613 0.754785 14.5345 0.754785H14.5273H11.4727H11.4655C9.63871 0.754785 8.25895 0.754785 7.16129 0.845859C6.06036 0.937205 5.2299 1.12093 4.50495 1.49605C3.24493 2.14802 2.22094 3.18811 1.57934 4.46687Z" fill="#110D0E" stroke="#110D0E" stroke-width="0.3"/>
</svg>
