<svg width="26" height="26" viewBox="0 0 26 26" fill="none" xmlns="http://www.w3.org/2000/svg">
<path fill-rule="evenodd" clip-rule="evenodd" d="M5.69998 25.2772V8.83239H0.318156V25.2772L5.69998 25.2772ZM3.00963 6.58794C4.88579 6.58794 6.05449 5.32411 6.05449 3.74607C6.01902 2.13294 4.88579 0.904785 3.04481 0.904785C1.20354 0.904835 0 2.13299 0 3.74612C0 5.32416 1.16806 6.58799 2.9742 6.58799L3.00963 6.58794ZM8.6786 25.2772C8.6786 25.2772 8.74921 10.3754 8.6786 8.83244H14.0613V11.2173H14.0255C14.7333 10.0951 16.0084 8.44627 18.9116 8.44627C22.4536 8.44627 25.1085 10.7966 25.1085 15.8479V25.2773H19.7267V16.4798C19.7267 14.2692 18.948 12.7608 16.9998 12.7608C15.5132 12.7608 14.6273 13.7777 14.2382 14.7607C14.0959 15.1106 14.0613 15.602 14.0613 16.0935V25.2772H8.6786Z" fill="#110D0E"/>
</svg>
