<svg width="60" height="60" viewBox="0 0 60 60" fill="none" xmlns="http://www.w3.org/2000/svg">
<path d="M9.53508 11.8338C12.8029 11.8338 15.452 9.18474 15.452 5.91692C15.452 2.64909 12.8029 0 9.53508 0C6.26726 0 3.61816 2.64909 3.61816 5.91692C3.61816 9.18474 6.26726 11.8338 9.53508 11.8338Z" fill="white"/>
<path d="M2.93401 32.567H3.52081V44.303C3.52081 45.9172 4.84111 47.237 6.45482 47.237H12.6162C14.2299 47.237 15.5502 45.9172 15.5502 44.303V43.6189C15.0123 42.5915 14.67 41.4184 14.67 40.1959V24.8412C14.67 21.8583 16.4794 19.2666 19.0711 18.1419V16.9683C19.0711 15.3546 17.7508 14.0343 16.1371 14.0343H2.93401C1.3203 14.0343 0 15.3546 0 16.9683V29.6335C0 31.2472 1.2714 32.567 2.93401 32.567Z" fill="white"/>
<path d="M50.5136 11.8338C53.7814 11.8338 56.4305 9.18474 56.4305 5.91692C56.4305 2.64909 53.7814 0 50.5136 0C47.2458 0 44.5967 2.64909 44.5967 5.91692C44.5967 9.18474 47.2458 11.8338 50.5136 11.8338Z" fill="white"/>
<path d="M40.9287 16.9195V18.0931C43.5209 19.2178 45.3297 21.8095 45.3297 24.7924V40.0982C45.3297 41.3207 45.0363 42.4943 44.45 43.5212V44.2058C44.45 45.8195 45.7698 47.1398 47.384 47.1398H53.5454C55.1591 47.1398 56.4795 45.8195 56.4795 44.2058V32.4697H57.0658C58.68 32.4697 59.9998 31.1494 59.9998 29.5357V16.9195C59.9998 15.3058 58.68 13.9855 57.0658 13.9855H43.8627C42.2495 13.9855 40.9287 15.3053 40.9287 16.9195Z" fill="white"/>
<path d="M19.1201 24.8407V29.633V40.1954C19.1201 41.8091 20.4404 43.1294 22.0541 43.1294H23.1788V56.9681C23.1788 58.5819 24.4991 59.9022 26.1128 59.9022H33.9858C35.5995 59.9022 36.9198 58.5819 36.9198 56.9681V43.0805H38.0445C39.6582 43.0805 40.9785 41.7607 40.9785 40.1465V29.6335V24.8412C40.9785 23.2275 39.6582 21.9072 38.0445 21.9072H22.0541C20.3915 21.9067 19.1201 23.2275 19.1201 24.8407Z" fill="white"/>
<path d="M30.0247 19.4623C33.7786 19.4623 36.8218 16.4191 36.8218 12.6652C36.8218 8.91122 33.7786 5.86804 30.0247 5.86804C26.2707 5.86804 23.2275 8.91122 23.2275 12.6652C23.2275 16.4191 26.2707 19.4623 30.0247 19.4623Z" fill="white"/>
</svg>
