<svg width="60" height="60" viewBox="0 0 60 60" fill="none" xmlns="http://www.w3.org/2000/svg">
<path d="M22.5938 7.17187C28.2188 7.17187 32.7656 11.7188 32.7656 17.3438C32.7656 22.9688 28.2188 27.5625 22.5938 27.5625C16.9688 27.5625 12.4219 23.0156 12.4219 17.3906C12.4219 11.7656 16.9688 7.17187 22.5938 7.17187ZM51.4688 50.0625H38.7188L44.6719 39.7969C45.8906 37.6406 45.1406 34.9219 43.0312 33.7031C40.9219 32.4844 38.2031 33.2344 36.9844 35.3438L31.0313 45.6094L22.1719 30.4219C21.3281 28.8281 19.6406 28.0312 17.5312 28.0312C17.25 28.0312 16.6406 28.125 16.3125 28.2188C16.0313 28.2656 15.6094 28.4062 15.2813 28.5C6.75 31.3125 0 44.9531 0 59.0625C0.234375 59.0625 20.4844 59.0625 25.6406 59.0625C25.4531 58.7812 25.2656 58.5469 25.0781 58.2656L14.8125 40.5469C14.4844 39.9375 14.7188 39.1406 15.2813 38.8125C15.8906 38.4844 16.6875 38.7188 17.0156 39.2812L27.1875 56.8594C27.9375 58.1719 29.3438 59.0625 30.9844 59.0625H51.4688C53.9531 59.0625 55.9219 57.0469 55.9219 54.6094C55.9688 52.0312 53.9062 50.0625 51.4688 50.0625ZM45.5447 23.643H52.233V24.9738H45.5447V23.643ZM49.8921 27.656H47.8856C47.1469 27.656 46.548 27.0572 46.548 26.3184V25.984H51.2299V26.3184C51.2299 27.0572 50.6309 27.656 49.8921 27.656ZM48.7195 6.2557C44.8845 6.34594 41.8048 9.55734 41.8671 13.3931C41.8966 15.2065 42.6136 16.8527 43.7686 18.0827C44.8922 19.2795 45.5447 20.842 45.5447 22.4836V22.6331H48.3872V16.7878H47.0496V15.7847H50.7281V16.7878H49.3905V22.6331H52.233V22.4831C52.233 20.8444 52.8806 19.2818 54.0037 18.0884C55.1866 16.8314 55.9116 15.1385 55.9116 13.2764C55.9116 9.34148 52.6755 6.16242 48.7195 6.2557ZM49.8495 0H48.5391V4.35422H49.8495V0ZM59.0156 4.58086L58.0891 3.65437L55.0102 6.73313L55.9366 7.65961L59.0156 4.58086ZM42.0555 7.65984L42.982 6.73336L39.903 3.65437L38.9766 4.58086L42.0555 7.65984Z" fill="#EF2D55"/>
</svg>
