<svg width="73" height="67" viewBox="0 0 73 67" fill="none" xmlns="http://www.w3.org/2000/svg">
<path d="M72.8197 62.3221L71.5419 58.565C69.1424 51.4978 62.6447 46.6814 55.2419 46.3653C54.5903 46.8715 53.9035 47.3065 53.1916 47.6869C52.1303 50.4736 48.5645 51.2286 46.4753 49.0944C44.0037 48.8761 41.7409 47.8997 39.7648 46.3654C32.362 46.6805 25.866 51.4969 23.4647 58.5652L22.189 62.3221C21.8202 63.4028 21.9978 64.5937 22.6631 65.5214C23.3262 66.4498 24.3992 67 25.5404 67H69.4666C70.6076 67 71.6807 66.4499 72.3439 65.5214C73.0089 64.5937 73.1864 63.4028 72.8197 62.3221Z" fill="white"/>
<path d="M52.394 43.5057C56.6915 40.4851 59.6973 33.8145 59.6973 27.3655C59.6973 9.03759 35.3115 9.05706 35.3115 27.3655C35.3115 35.2034 39.7495 43.3565 45.5548 44.8956C46.1145 43.3096 47.6126 42.1627 49.3879 42.1627C50.5817 42.1625 51.6468 42.6862 52.394 43.5057Z" fill="white"/>
<path d="M29.9607 35.0171C30.5653 37.392 33.8603 36.7385 33.8603 34.5392C33.8603 25.7239 34.2816 24.9007 33.1014 23.9439C35.803 7.29658 59.0751 7.42144 61.9075 23.9458C60.7292 24.9056 61.1507 25.7249 61.1507 34.5392C61.1507 35.2287 61.5213 35.8072 62.0538 36.1661C62.0538 43.0239 59.272 42.6229 50.9073 44.84C49.6141 43.4364 47.3043 44.3502 47.3043 46.2435C47.3043 48.6146 50.7026 49.1694 51.3619 46.7859C58.1151 44.9951 64.0511 44.4304 64.0511 37.6809V36.2958C64.5525 36.0362 64.9074 35.5761 65.0499 35.0171C71.5594 34.8845 71.5615 25.1289 65.0499 24.9963C64.9152 24.4637 64.5837 24.0287 64.1175 23.7634C64.2853 21.7659 63.8738 19.1402 62.7286 16.6053C54.764 0.17064 31.2402 6.60106 30.8718 22.5286C30.821 23.068 30.862 23.4504 30.8932 23.7634C30.4269 24.0287 30.0954 24.4637 29.9607 24.9963C27.2336 25.0489 25.0352 27.2679 25.0352 30.0068C25.0352 32.7455 27.2336 34.9644 29.9607 35.0171Z" fill="white"/>
<path d="M18.5636 15.3373C18.281 15.9908 17.8562 16.6107 17.2956 17.1775L17.0899 17.3855L16.398 21.9879L12.8308 19.5356L12.4648 19.604C11.7859 19.731 11.086 19.7953 10.3846 19.7953C5.64778 19.7953 1.79407 16.9161 1.79407 13.377C1.79407 9.94729 5.41354 7.13729 9.94855 6.96707C9.5706 6.41641 9.23671 5.88123 8.95948 5.37571C8.93617 5.33365 8.91434 5.29113 8.89251 5.24861C6.72445 5.49316 4.71703 6.26909 3.12821 7.49415C1.11095 9.04949 0 11.1387 0 13.3771C0 15.6154 1.11095 17.7047 3.12815 19.26C5.07623 20.762 7.65325 21.5893 10.3845 21.5893C11.0688 21.5893 11.7523 21.5362 12.4217 21.4314L15.7761 23.7373C16.0265 23.9091 16.3192 24 16.6226 24C16.8285 24 17.0288 23.9584 17.2178 23.8763C17.6933 23.67 18.0234 23.2408 18.101 22.7273L18.7781 18.2225C19.3692 17.5833 19.8332 16.8906 20.1643 16.1599C19.9112 16.0745 19.6655 15.9679 19.4308 15.8399C19.1373 15.6808 18.8482 15.5124 18.5636 15.3373Z" fill="white"/>
<path d="M24.4652 11.1638L22.2491 8.94789C22.0394 8.73829 21.7607 8.62284 21.4642 8.62284C21.4266 8.62284 21.3895 8.62472 21.3537 8.6284C20.742 8.69021 20.169 8.92533 19.696 9.3085C19.6226 9.3681 19.529 9.40111 19.4327 9.40111C19.3382 9.40111 19.2458 9.36897 19.1725 9.31064C17.8141 8.2171 16.5727 6.97503 15.4817 5.61778C15.3593 5.4655 15.3598 5.24498 15.4826 5.09317C15.8656 4.6202 16.1005 4.04751 16.162 3.43706C16.1954 3.10417 16.079 2.77758 15.8425 2.541L13.6263 0.324915C13.4167 0.115381 13.1381 0 12.8421 0C12.8061 0 12.7698 0.00180806 12.7339 0.00535721C12.0169 0.0754698 11.3403 0.395898 10.8286 0.90758C9.84526 1.89103 9.62782 3.4242 10.2999 4.636C12.0302 7.79301 16.1919 12.343 20.1625 14.4952C20.6188 14.7441 21.1363 14.8755 21.6599 14.8755C22.492 14.8755 23.3021 14.5425 23.8827 13.9618C24.3943 13.4503 24.7148 12.7737 24.785 12.0566C24.8177 11.7252 24.7011 11.3999 24.4652 11.1638Z" fill="white"/>
<path d="M6.06967 13.4879L4.85351 14.8392C4.80396 14.8943 4.77637 14.9659 4.77637 15.0401V15.1662C4.77637 15.3321 4.91083 15.4665 5.07664 15.4665H7.13073C7.2966 15.4665 7.431 15.332 7.431 15.1662V15.0762C7.431 14.9103 7.29654 14.7759 7.13073 14.7759H5.83998L6.57606 13.9562C6.97055 13.5446 7.19676 13.1059 7.19676 12.752C7.19676 12.1332 6.71943 11.7174 6.00906 11.7174C5.59582 11.7174 5.16825 11.905 4.86503 12.2191C4.75139 12.337 4.753 12.5242 4.86885 12.64L4.93186 12.703C4.98891 12.7601 5.0678 12.7922 5.14715 12.7909C5.22778 12.7901 5.30479 12.7569 5.36064 12.6988C5.53321 12.5195 5.78158 12.408 6.00906 12.408C6.23574 12.408 6.50601 12.4677 6.50601 12.7519C6.50601 12.8872 6.37155 13.1731 6.07623 13.4809C6.07389 13.4831 6.07181 13.4855 6.06967 13.4879Z" fill="white"/>
<path d="M9.08946 15.4665H9.17966C9.34547 15.4665 9.47994 15.332 9.47994 15.1662V14.5296H9.68405C9.84992 14.5296 9.98432 14.3952 9.98432 14.2294V14.1392C9.98432 13.9734 9.84985 13.839 9.68405 13.839H9.47994V13.1347C9.47994 12.9689 9.3454 12.8345 9.17966 12.8345H9.08946C8.92359 12.8345 8.78912 12.9689 8.78912 13.1347V13.839H8.17639L9.13801 12.1674C9.19152 12.0745 9.19138 11.9601 9.13768 11.8674C9.08404 11.7746 8.98493 11.7174 8.87772 11.7174H8.77419C8.66671 11.7174 8.5674 11.7748 8.51376 11.868L7.30665 13.9671C7.2804 14.0127 7.2666 14.0642 7.2666 14.1168V14.2294C7.2666 14.3953 7.40107 14.5297 7.56687 14.5297H8.78906V15.1663C8.78912 15.332 8.92366 15.4665 9.08946 15.4665Z" fill="white"/>
<path d="M10.8499 11.583H10.7598C10.5731 11.583 10.4219 11.7342 10.4219 11.9209V15.263C10.4219 15.4496 10.5731 15.6009 10.7598 15.6009H10.8499C11.0365 15.6009 11.1878 15.4496 11.1878 15.263V14.1234C11.1878 13.6278 11.4084 13.3715 11.8364 13.3622C12.1683 13.3622 12.3229 13.5182 12.3229 13.8532V15.263C12.3229 15.4496 12.4742 15.6009 12.6607 15.6009H12.7509C12.9374 15.6009 13.0887 15.4496 13.0887 15.263V13.8532C13.0887 13.0898 12.5972 12.5964 11.8303 12.5965C11.5916 12.6008 11.3752 12.6508 11.1878 12.7417V11.9208C11.1878 11.7342 11.0365 11.583 10.8499 11.583Z" fill="white"/>
</svg>
