<svg width="50" height="54" viewBox="0 0 50 54" fill="none" xmlns="http://www.w3.org/2000/svg">
<path d="M24.7621 0C25.6288 1.60952 26.8669 2.84762 28.4764 3.71429C26.8669 4.58095 25.6288 5.81905 24.7621 7.42857C23.8955 5.81905 22.6574 4.58095 21.0479 3.71429C22.6574 2.84762 23.8955 1.60952 24.7621 0Z" fill="#EF2D55"/>
<path d="M45.81 7.42859C46.6767 9.03811 47.9148 10.2762 49.5243 11.1429C47.9148 12.0095 46.6767 13.2476 45.81 14.8572C44.9433 13.2476 43.7052 12.0095 42.0957 11.1429C43.7052 10.2762 44.9433 9.03811 45.81 7.42859Z" fill="#EF2D55"/>
<path d="M3.71429 7.42859C4.58095 9.03811 5.81905 10.2762 7.42857 11.1429C5.81905 12.0095 4.58095 13.2476 3.71429 14.8572C2.84762 13.2476 1.60952 12.0095 0 11.1429C1.60952 10.2762 2.84762 9.03811 3.71429 7.42859Z" fill="#EF2D55"/>
<path d="M24.7617 52C35.7022 52 44.5712 43.131 44.5712 32.1905C44.5712 21.25 35.7022 12.381 24.7617 12.381C13.8212 12.381 4.95215 21.25 4.95215 32.1905C4.95215 43.131 13.8212 52 24.7617 52Z" stroke="#EF2D55" stroke-width="3" stroke-miterlimit="10"/>
<path d="M24.7621 46.6763C32.7623 46.6763 39.2478 40.1908 39.2478 32.1905C39.2478 24.1903 32.7623 17.7048 24.7621 17.7048C16.7618 17.7048 10.2764 24.1903 10.2764 32.1905C10.2764 40.1908 16.7618 46.6763 24.7621 46.6763Z" stroke="#EF2D55" stroke-width="3" stroke-miterlimit="10" stroke-linecap="round" stroke-linejoin="round"/>
<path d="M24.7617 12.381V17.3334" stroke="#EF2D55" stroke-width="3" stroke-miterlimit="10" stroke-linecap="round" stroke-linejoin="round"/>
<path d="M38.7528 18.2L35.2861 21.6666" stroke="#EF2D55" stroke-width="3" stroke-miterlimit="10" stroke-linecap="round" stroke-linejoin="round"/>
<path d="M44.5715 32.1904H39.6191" stroke="#EF2D55" stroke-width="3" stroke-miterlimit="10" stroke-linecap="round" stroke-linejoin="round"/>
<path d="M38.7528 46.1809L35.2861 42.7142" stroke="#EF2D55" stroke-width="3" stroke-miterlimit="10" stroke-linecap="round" stroke-linejoin="round"/>
<path d="M24.7617 52V47.0476" stroke="#EF2D55" stroke-width="3" stroke-miterlimit="10" stroke-linecap="round" stroke-linejoin="round"/>
<path d="M10.7715 46.1809L14.2382 42.7142" stroke="#EF2D55" stroke-width="3" stroke-miterlimit="10" stroke-linecap="round" stroke-linejoin="round"/>
<path d="M4.95215 32.1904H9.90453" stroke="#EF2D55" stroke-width="3" stroke-miterlimit="10" stroke-linecap="round" stroke-linejoin="round"/>
<path d="M10.7715 18.2L14.2382 21.6666" stroke="#EF2D55" stroke-width="3" stroke-miterlimit="10" stroke-linecap="round" stroke-linejoin="round"/>
<path d="M21.667 36.8952L22.286 37.5143C22.9051 38.1333 23.6479 38.381 24.5146 38.381H24.7622C26.4956 38.381 27.8575 37.019 27.8575 35.2857C27.8575 33.5524 26.4956 32.1905 24.7622 32.1905C23.0289 32.1905 21.667 30.8286 21.667 29.0952C21.667 27.3619 23.0289 26 24.7622 26H25.0099C25.8765 26 26.6194 26.3714 27.2384 26.8667L27.8575 27.4857" stroke="#EF2D55" stroke-width="3" stroke-miterlimit="10" stroke-linecap="round" stroke-linejoin="round"/>
<path d="M24.7617 26V23.5238" stroke="#EF2D55" stroke-width="3" stroke-miterlimit="10" stroke-linecap="round" stroke-linejoin="round"/>
<path d="M24.7617 38.381V40.8572" stroke="#EF2D55" stroke-width="3" stroke-miterlimit="10" stroke-linecap="round" stroke-linejoin="round"/>
</svg>
