<svg width="42" height="52" viewBox="0 0 42 52" fill="none" xmlns="http://www.w3.org/2000/svg">
<path d="M28.5006 1.72507L27.8177 1.04223V1.63224C27.3632 1.61277 26.5173 1.58715 25.1904 1.60791H7.04839C3.48725 1.60791 0.6 4.49516 0.6 8.0563V44.3466C0.6 47.9078 3.48725 50.795 7.04839 50.795H34.2661C37.8273 50.795 40.7145 47.9078 40.7145 44.3466V17.1289V14.1047V13.939L40.5974 13.8218L28.5006 1.72507ZM31.2419 13.7047C29.7935 13.7047 28.6177 12.5289 28.6177 11.0805V5.99779L36.3246 13.7047H31.2419ZM36.8903 44.3466C36.8903 45.7951 35.7146 46.9708 34.2661 46.9708H7.04839C5.59995 46.9708 4.42419 45.7951 4.42419 44.3466V8.0563C4.42419 6.60786 5.59995 5.4321 7.04839 5.4321H24.7486C24.7392 7.06769 24.7492 8.43753 24.7622 9.41963C24.7692 9.95051 24.7771 10.3682 24.7832 10.6533C24.7863 10.7958 24.7889 10.9053 24.7907 10.9792L24.7929 11.0631L24.7935 11.0845L24.7935 11.0862C24.7966 14.6447 27.6827 17.5289 31.2419 17.5289H36.8903V44.3466Z" fill="#EF485C" stroke="#EF485C" stroke-width="0.8"/>
<path d="M19.4086 20.2983L19.4055 20.2984C18.1865 20.313 17.0243 20.5556 15.9211 21.0263C14.8215 21.4955 13.8654 22.1274 13.0553 22.9227C12.2435 23.7197 11.6034 24.6775 11.1338 25.7928C10.6633 26.9102 10.4277 28.073 10.4277 29.2792C10.4277 30.527 10.6628 31.6979 11.1347 32.7892C11.6044 33.8754 12.244 34.8243 13.0537 35.634C13.8639 36.4442 14.8206 37.0839 15.9211 37.5535C17.0253 38.0246 18.1885 38.26 19.4086 38.26C21.0085 38.26 22.5198 37.8441 23.9387 37.0159L28.5187 41.596C28.9408 42.0334 29.4789 42.25 30.1129 42.25C30.7478 42.25 31.2915 42.033 31.727 41.5976C32.1611 41.1635 32.3794 40.6275 32.3794 40.005C32.3794 39.3827 32.1614 38.8414 31.7302 38.3942L31.7302 38.3942L31.7266 38.3906L27.1251 33.8099C27.9666 32.3911 28.3894 30.8795 28.3894 29.2792C28.3894 28.0869 28.1537 26.9245 27.6838 25.7939C27.2142 24.6639 26.5735 23.7049 25.7601 22.9211C24.9509 22.1412 23.9962 21.5103 22.8986 21.0274C21.7939 20.5413 20.6298 20.2983 19.4086 20.2983ZM14.3902 32.1991C13.8696 31.3087 13.6092 30.3371 13.6092 29.2792C13.6092 28.2362 13.8693 27.2716 14.3902 26.3807C14.9119 25.4882 15.6176 24.7825 16.51 24.2608C17.401 23.7399 18.3656 23.4798 19.4086 23.4798C20.1592 23.4798 20.9054 23.6366 21.6488 23.9532C22.3947 24.2709 23.0095 24.6823 23.4983 25.1846C23.9913 25.6914 24.4049 26.3035 24.7376 27.0242C25.0648 27.7333 25.2216 28.4825 25.208 29.2749C25.1942 30.0732 25.0361 30.8281 24.7343 31.5414C24.4316 32.257 24.0202 32.8732 23.5007 33.3927C22.9811 33.9123 22.3649 34.3236 21.6494 34.6264C20.9373 34.9276 20.1916 35.0783 19.4102 35.0785C18.3655 35.0645 17.3993 34.8037 16.5076 34.2961C15.6164 33.7889 14.9116 33.091 14.3902 32.1991Z" fill="#EF485C" stroke="#EF485C" stroke-width="0.5"/>
</svg>
