<svg width="48" height="52" viewBox="0 0 48 52" fill="none" xmlns="http://www.w3.org/2000/svg">
<path d="M36.4295 27.8051V32.0783H21.4184V35.277C21.4184 36.4424 21.7072 37.5334 22.1824 38.5195H19.9271L8.51719 31.0195C6.82734 29.9074 4.67109 29.8143 2.88809 30.7746C2.01459 31.245 1.28483 31.9432 0.776311 32.7951C0.267796 33.6469 -0.000474098 34.6206 6.28959e-07 35.6127C6.28959e-07 37.4906 0.942774 39.2186 2.52188 40.2346L16.5135 49.2445H36.4295V51.3873H47.1434V27.8051H36.4295ZM17.7732 44.9584L4.8416 36.6311C4.67094 36.5216 4.5306 36.371 4.43352 36.193C4.33644 36.015 4.28575 35.8154 4.28613 35.6127C4.28613 34.9611 4.73086 34.65 4.92246 34.5463C5.11523 34.4449 5.61856 34.2428 6.16348 34.5996L18.6451 42.8051H32.1627V38.5195H32.1211V38.5172H28.9453C27.5402 38.5172 26.3402 37.6172 25.892 36.3639H36.4301V44.9584H17.7732ZM42.8578 47.1012H40.715V32.0906H42.8578V47.1012ZM7.18652 25.1256C5.9877 23.0338 5.3543 20.6443 5.3543 18.2145C5.3543 10.5346 11.601 4.28613 19.2785 4.28613C26.9578 4.28613 33.2039 10.5346 33.2039 18.2145C33.2039 20.642 32.5711 23.0314 31.3729 25.1232L35.0912 27.2537C36.6609 24.5133 37.4895 21.3879 37.4895 18.2145C37.4895 8.1709 29.3197 0 19.2785 0C9.23731 0 1.06875 8.1709 1.06875 18.2145C1.06875 21.3902 1.89844 24.5162 3.46817 27.2555L7.18652 25.1256Z" fill="#EF485C"/>
<path d="M13.283 16.2927L10.4248 19.4849L18.4363 26.6608L28.4184 15.1782L25.1828 12.3657L18.0555 20.5671L13.283 16.2927Z" fill="#EF485C"/>
</svg>
