<svg width="51" height="49" viewBox="0 0 51 49" fill="none" xmlns="http://www.w3.org/2000/svg">
<path d="M44.7965 37.9639C43.9729 37.1658 42.8766 36.7948 41.7961 36.8558L38.9005 34.0501C40.0755 32.5964 41.0459 31.0004 41.7961 29.2823C42.9291 26.6799 43.5061 23.9199 43.5061 21.0786C43.5061 18.2373 42.9291 15.4722 41.7961 12.8749C40.6998 10.3639 39.1313 8.11223 37.1329 6.17566C35.1343 4.2391 32.8106 2.71933 30.2193 1.65701C27.5336 0.559114 24.6853 0 21.7531 0C18.8209 0 15.9673 0.559114 13.2869 1.65701C10.6956 2.71424 8.37185 4.23401 6.37332 6.17058C4.37479 8.10715 2.80639 10.3588 1.71008 12.8698C0.577004 15.4722 0 18.2322 0 21.0736C0 23.9148 0.577004 26.6799 1.71003 29.2773C2.80634 31.7882 4.37474 34.0399 6.37327 35.9765C8.3718 37.9131 10.6956 39.4329 13.2868 40.4951C15.9725 41.5931 18.8208 42.1522 21.753 42.1522C24.6852 42.1522 27.5388 41.5931 30.2192 40.4951C32.0132 39.7581 33.6812 38.8076 35.1972 37.6436L38.0874 40.4442C38.0297 41.4914 38.4075 42.5536 39.231 43.3517L43.3382 47.3315C44.1041 48.0737 45.1112 48.4497 46.1183 48.4497C47.1255 48.4497 48.1325 48.0787 48.8984 47.3315C50.4354 45.8423 50.4354 43.4279 48.8984 41.9386L44.7965 37.9639ZM35.1553 30.4158C34.636 31.1071 34.059 31.7679 33.4243 32.3828C32.8053 32.9827 32.1444 33.5265 31.4519 34.0144C28.6509 35.9967 25.2832 37.0641 21.7477 37.0641C17.3363 37.0641 13.1924 35.4021 10.0765 32.3778C6.96071 29.3586 5.24019 25.3381 5.24019 21.0685C5.24019 16.7989 6.95547 12.7783 10.0765 9.75912C13.1924 6.73991 17.3415 5.07274 21.7477 5.07274C26.154 5.07274 30.3032 6.73483 33.419 9.75912C36.5348 12.7783 38.2553 16.7989 38.2553 21.0685C38.2606 24.474 37.1748 27.7117 35.1553 30.4158Z" fill="#EF485C"/>
<path d="M20.2474 9.82036H23.2636C24.2078 9.82036 24.9894 10.5421 25.1362 11.4774H27.7747C27.6069 9.13417 25.6503 7.27893 23.2636 7.27893H20.2474C17.8608 7.27893 15.9042 9.13417 15.7363 11.4774H18.3748C18.5164 10.537 19.3033 9.82036 20.2474 9.82036Z" fill="#EF485C"/>
<path d="M27.785 12.748H25.1623H18.3432H15.7204H11.4453C10.648 12.748 9.75105 13.4851 9.26322 13.9476C8.95898 14.3034 8.90128 14.5474 8.92751 14.8219C9.12159 16.6466 10.3753 18.3646 12.4997 19.7166C14.3828 20.9111 16.7485 21.6989 19.3293 21.9988C20.1161 22.0903 20.9292 22.1412 21.7475 22.1412C23.2634 22.1412 24.7427 21.9785 26.1275 21.6684C27.9477 21.2618 29.6053 20.6011 31.0005 19.7166C33.1249 18.3646 34.3734 16.6415 34.5727 14.8219C34.6042 14.5423 34.4469 14.1407 34.237 13.9476C33.7492 13.4851 32.8522 12.748 32.0549 12.748H27.785Z" fill="#EF485C"/>
<path d="M32.1604 21.4192C30.891 22.2274 29.4327 22.8729 27.8486 23.3304C25.955 23.8844 23.8883 24.1742 21.7534 24.1742C21.6013 24.1742 21.4439 24.1742 21.2918 24.1691C17.5465 24.098 14.032 23.1271 11.3463 21.4192C10.2133 20.6975 9.27432 19.8741 8.53995 18.9642C8.36161 18.7406 8.23047 18.7812 8.23047 19.0608V26.1463C8.23047 27.9405 9.66773 29.3993 11.4407 29.3993H26.6789H32.0555C32.6378 29.3993 33.1833 29.2418 33.6501 28.9673C34.6153 28.4082 35.2657 27.356 35.2657 26.1463V19.0659C35.2657 18.7863 35.1346 18.7457 34.9563 18.9693C34.2324 19.874 33.2934 20.6975 32.1604 21.4192Z" fill="#EF485C"/>
</svg>
