<svg width="46" height="51" viewBox="0 0 46 51" fill="none" xmlns="http://www.w3.org/2000/svg">
<path d="M19.125 0C17.34 0 16.065 1.02 15.555 2.55H5.1C2.295 2.55 0 4.845 0 7.65V43.35C0 46.155 2.295 48.45 5.1 48.45H22.95C22.95 49.98 23.97 51 25.5 51H43.35C44.88 51 45.9 49.98 45.9 48.45V22.95C45.9 21.42 44.88 20.4 43.35 20.4H38.25V7.65C38.25 4.845 35.955 2.55 33.15 2.55H22.695C22.185 1.02 20.91 0 19.125 0ZM19.125 2.55C19.89 2.55 20.4 3.06 20.4 3.825C20.4 4.59 19.89 5.1 19.125 5.1C18.36 5.1 17.85 4.59 17.85 3.825C17.85 3.06 18.36 2.55 19.125 2.55ZM6.375 7.65H12.75V10.2H25.5V7.65H31.875C32.64 7.65 33.15 8.16 33.15 8.925V20.4H25.5C23.97 20.4 22.95 21.42 22.95 22.95V43.35H6.375C5.61 43.35 5.1 42.84 5.1 42.075V8.925C5.1 8.16 5.61 7.65 6.375 7.65ZM19.38 16.32H9.18V21.42H19.38V16.32ZM19.38 23.97H9.18V29.07H19.38V23.97ZM19.38 31.875H9.18V36.975H19.38V31.875ZM28.05 25.5H40.8V30.6H28.05V25.5ZM28.05 33.15H33.15V38.25H28.05V33.15ZM35.7 33.15H40.8V38.25H35.7V33.15ZM28.05 40.8H33.15V45.9H28.05V40.8ZM35.7 40.8H40.8V45.9H35.7V40.8Z" fill="#EF485C"/>
</svg>
