<svg width="47" height="50" viewBox="0 0 47 50" fill="none" xmlns="http://www.w3.org/2000/svg">
<path d="M41.8893 23.4114H5.09998C4.09663 23.4114 3.42773 22.7425 3.42773 21.7391V1.67224C3.42773 0.668896 4.09663 0 5.09998 0H41.8893C42.8926 0 43.5615 0.668896 43.5615 1.67224V21.7391C43.5615 22.7425 42.8926 23.4114 41.8893 23.4114ZM6.77222 20.0669H40.217V3.34448H6.77222V20.0669Z" fill="#EF485C"/>
<path d="M23.4952 18.3947C20.6524 18.3947 18.4785 15.3846 18.4785 11.7057C18.4785 8.02676 20.6524 5.01672 23.4952 5.01672C26.338 5.01672 28.512 8.02676 28.512 11.7057C28.512 15.3846 26.338 18.3947 23.4952 18.3947Z" fill="#EF485C"/>
<path d="M37.0696 30.6659L37.0777 30.6551L37.0856 30.6441C38.9591 28.0501 42.0045 26.5836 45.2341 26.5836C45.2724 26.5836 45.2993 26.5878 45.3186 26.5933L45.2645 26.6894L40.7495 34.7161L40.7495 34.7161L40.7435 34.7269C38.3269 39.107 33.808 41.811 28.8462 41.811C21.0601 41.811 13.4438 44.0523 6.85978 48.3629C6.80867 48.3883 6.76424 48.41 6.72121 48.4302C6.68879 48.4454 6.66104 48.4578 6.63708 48.4681C6.63384 48.4656 6.63063 48.4631 6.62743 48.4606C6.59763 48.4374 6.57613 48.4188 6.56187 48.4056L6.5538 48.3921L1.53708 40.0309L1.51871 40.0003L1.50068 39.9733C1.50037 39.9719 1.5 39.9696 1.5 39.9666C1.5 39.9635 1.50037 39.9612 1.50068 39.9598L1.50584 39.9521L1.5126 39.9416L6.02765 32.9182L6.03564 32.9057L6.04337 32.8932C8.41737 29.0354 12.7549 26.5836 18.311 26.5836H28.4847C28.4866 26.5844 28.4889 26.5854 28.4914 26.5866C28.5185 26.5992 28.5591 26.6253 28.6007 26.6669C28.6423 26.7085 28.6683 26.7491 28.681 26.7762C28.6821 26.7787 28.6831 26.7809 28.6839 26.7829V26.9231C28.6839 28.6447 26.9785 30.2726 25 30.2726H21.8227C20.9802 30.2726 20.1615 30.56 19.5497 31.1718C18.9379 31.7836 18.6505 32.6023 18.6505 33.4448C18.6505 34.2874 18.9379 35.106 19.5497 35.7179C20.1615 36.3297 20.9802 36.6171 21.8227 36.6171H26.8395C30.0703 36.6171 33.3525 35.2909 35.5096 32.7415L35.5381 32.7078L35.5645 32.6726L37.0696 30.6659ZM6.54048 48.3843C6.54045 48.3842 6.54135 48.3851 6.54303 48.3871C6.54132 48.3853 6.54051 48.3843 6.54048 48.3843Z" stroke="#EF485C" stroke-width="3"/>
<path d="M11.7895 1.67224H10.1173H5.10059V6.68896V8.3612V10.0334C9.78286 10.0334 13.4618 6.35452 13.4618 1.67224H11.7895Z" fill="#EF485C"/>
<path d="M5.10059 15.0502V16.7224V21.7391H10.1173H11.7895H13.4618C13.4618 17.0569 9.78286 13.3779 5.10059 13.3779V15.0502Z" fill="#EF485C"/>
<path d="M35.2006 21.7391H36.8728H41.8895V16.7224V15.0502V13.3779C37.2073 13.3779 33.5283 17.0569 33.5283 21.7391H35.2006Z" fill="#EF485C"/>
<path d="M41.8895 8.3612V6.68896V1.67224H36.8728H35.2006H33.5283C33.5283 6.35452 37.2073 10.0334 41.8895 10.0334V8.3612Z" fill="#EF485C"/>
</svg>
