<svg width="53" height="53" viewBox="0 0 53 53" fill="none" xmlns="http://www.w3.org/2000/svg">
<path d="M52.5 48.7493H0V52.4993H52.5V48.7493Z" fill="#EF485C"/>
<path d="M46.875 16.8742C47.3723 16.8742 47.8492 16.6767 48.2008 16.325C48.5525 15.9734 48.75 15.4965 48.75 14.9992V9.3742C48.7498 8.98886 48.631 8.61293 48.4095 8.29757C48.1881 7.9822 47.8749 7.74272 47.5125 7.6117L26.8875 0.111702C26.4755 -0.0372341 26.0245 -0.0372341 25.6125 0.111702L4.9875 7.6117C4.62512 7.74272 4.3119 7.9822 4.09048 8.29757C3.86905 8.61293 3.75016 8.98886 3.75 9.3742V14.9992C3.75 15.4965 3.94754 15.9734 4.29918 16.325C4.65081 16.6767 5.12772 16.8742 5.625 16.8742H7.5V41.2492H3.75V44.9992H48.75V41.2492H45V16.8742H46.875ZM7.5 10.6867L26.25 3.8617L45 10.6867V13.1242H7.5V10.6867ZM30 41.2492H22.5V16.8742H30V41.2492ZM11.25 16.8742H18.75V41.2492H11.25V16.8742ZM41.25 41.2492H33.75V16.8742H41.25V41.2492Z" fill="#EF485C"/>
</svg>
